<?xml version="1.0" encoding="UTF-8" standalone="no"?>
<!-- Created with Inkscape (http://www.inkscape.org/) -->
<svg
   xmlns:dc="http://purl.org/dc/elements/1.1/"
   xmlns:cc="http://creativecommons.org/ns#"
   xmlns:rdf="http://www.w3.org/1999/02/22-rdf-syntax-ns#"
   xmlns:svg="http://www.w3.org/2000/svg"
   xmlns="http://www.w3.org/2000/svg"
   xmlns:sodipodi="http://sodipodi.sourceforge.net/DTD/sodipodi-0.dtd"
   xmlns:inkscape="http://www.inkscape.org/namespaces/inkscape"
   width="243"
   height="337.5"
   id="svg2"
   sodipodi:version="0.32"
   inkscape:version="0.46"
   version="1.0"
   sodipodi:docname="figure2.svg"
   inkscape:output_extension="org.inkscape.output.svg.inkscape">
  <defs
     id="defs4">
    <marker
       inkscape:stockid="Arrow1Mstart"
       orient="auto"
       refY="0"
       refX="0"
       id="Arrow1Mstart"
       style="overflow:visible">
      <path
         id="path3196"
         d="M 0,0 L 5,-5 L -12.5,0 L 5,5 L 0,0 z"
         style="fill-rule:evenodd;stroke:#000000;stroke-width:1pt;marker-start:none"
         transform="matrix(0.4,0,0,0.4,4,0)" />
    </marker>
    <marker
       inkscape:stockid="Arrow1Mend"
       orient="auto"
       refY="0"
       refX="0"
       id="Arrow1Mend"
       style="overflow:visible">
      <path
         id="path3199"
         d="M 0,0 L 5,-5 L -12.5,0 L 5,5 L 0,0 z"
         style="fill-rule:evenodd;stroke:#000000;stroke-width:1pt;marker-start:none"
         transform="matrix(-0.4,0,0,-0.4,-4,0)" />
    </marker>
    <marker
       inkscape:stockid="Arrow1Send"
       orient="auto"
       refY="0"
       refX="0"
       id="Arrow1Send"
       style="overflow:visible">
      <path
         id="path3205"
         d="M 0,0 L 5,-5 L -12.5,0 L 5,5 L 0,0 z"
         style="fill-rule:evenodd;stroke:#000000;stroke-width:1pt;marker-start:none"
         transform="matrix(-0.2,0,0,-0.2,-1.2,0)" />
    </marker>
    <marker
       inkscape:stockid="Arrow1Sstart"
       orient="auto"
       refY="0"
       refX="0"
       id="Arrow1Sstart"
       style="overflow:visible">
      <path
         id="path3202"
         d="M 0,0 L 5,-5 L -12.5,0 L 5,5 L 0,0 z"
         style="fill-rule:evenodd;stroke:#000000;stroke-width:1pt;marker-start:none"
         transform="matrix(0.2,0,0,0.2,1.2,0)" />
    </marker>
    <marker
       inkscape:stockid="Arrow1Lend"
       orient="auto"
       refY="0"
       refX="0"
       id="Arrow1Lend"
       style="overflow:visible">
      <path
         id="path3193"
         d="M 0,0 L 5,-5 L -12.5,0 L 5,5 L 0,0 z"
         style="fill-rule:evenodd;stroke:#000000;stroke-width:1pt;marker-start:none"
         transform="matrix(-0.8,0,0,-0.8,-10,0)" />
    </marker>
    <inkscape:perspective
       sodipodi:type="inkscape:persp3d"
       inkscape:vp_x="0 : 526.18109 : 1"
       inkscape:vp_y="0 : 1000 : 0"
       inkscape:vp_z="744.09448 : 526.18109 : 1"
       inkscape:persp3d-origin="372.04724 : 350.78739 : 1"
       id="perspective10" />
  </defs>
  <sodipodi:namedview
     id="base"
     pagecolor="#ffffff"
     bordercolor="#666666"
     borderopacity="1.0"
     gridtolerance="10000"
     guidetolerance="10"
     objecttolerance="10"
     inkscape:pageopacity="0.0"
     inkscape:pageshadow="2"
     inkscape:zoom="1.8755556"
     inkscape:cx="142.82324"
     inkscape:cy="168.75"
     inkscape:document-units="px"
     inkscape:current-layer="layer1"
     showgrid="false"
     units="in"
     inkscape:window-width="1241"
     inkscape:window-height="1073"
     inkscape:window-x="23"
     inkscape:window-y="6" />
  <metadata
     id="metadata7">
    <rdf:RDF>
      <cc:Work
         rdf:about="">
        <dc:format>image/svg+xml</dc:format>
        <dc:type
           rdf:resource="http://purl.org/dc/dcmitype/StillImage" />
      </cc:Work>
    </rdf:RDF>
  </metadata>
  <g
     inkscape:label="Layer 1"
     inkscape:groupmode="layer"
     id="layer1">
    <rect
       style="opacity:1;fill:none;fill-opacity:1;stroke:#000000;stroke-width:0.60019189;stroke-miterlimit:4;stroke-dasharray:none;stroke-opacity:1"
       id="rect2383"
       width="84.617188"
       height="56.0835"
       x="83.317741"
       y="150.04089" />
    <rect
       y="254.33655"
       x="25.266397"
       height="56.0835"
       width="84.617188"
       id="rect3159"
       style="opacity:1;fill:none;fill-opacity:1;stroke:#000000;stroke-width:0.60019189;stroke-miterlimit:4;stroke-dasharray:none;stroke-opacity:1" />
    <rect
       style="opacity:0.5;fill:none;fill-opacity:1;stroke:#000000;stroke-width:0.60019189;stroke-miterlimit:4;stroke-dasharray:none;stroke-opacity:1"
       id="rect3161"
       width="84.617188"
       height="56.0835"
       x="138.41733"
       y="254.33655" />
    <text
       xml:space="preserve"
       style="font-size:14.40460587px;font-style:normal;font-variant:normal;font-weight:normal;font-stretch:normal;text-align:center;line-height:125%;writing-mode:lr-tb;text-anchor:middle;fill:#000000;fill-opacity:1;stroke:none;stroke-width:1px;stroke-linecap:butt;stroke-linejoin:miter;stroke-opacity:1;font-family:Lucida Grande;-inkscape-font-specification:Lucida Grande"
       x="104.84595"
       y="167.2005"
       id="text3163"
       sodipodi:linespacing="125%"><tspan
         sodipodi:role="line"
         id="tspan3165"
         x="104.84595"
         y="167.2005">AST</tspan></text>
    <path
       style="fill:none;fill-rule:evenodd;stroke:#000000;stroke-width:0.60019189;stroke-linecap:butt;stroke-linejoin:miter;stroke-miterlimit:4;stroke-dasharray:none;stroke-opacity:1"
       d="M 82.619343,50.655939 C 76.667793,34.304378 93.487338,24.795416 108.36483,28.437237 C 118.17062,19.965602 134.72243,19.887134 143.41715,31.837574 C 155.22105,24.139899 180.50837,37.218272 177.78962,50.215364 C 186.04749,59.6129 178.05068,79.086669 164.16558,82.984914 C 163.83219,92.677302 130.13291,101.82069 122.63015,91.528017 C 107.77572,96.758097 87.075348,83.643542 86.920098,76.615187 C 76.123158,70.028285 73.797843,62.094168 82.619343,50.655939 z"
       id="path3179"
       sodipodi:nodetypes="cccccccc" />
    <text
       xml:space="preserve"
       style="font-size:14.40460587px;font-style:normal;font-variant:normal;font-weight:normal;font-stretch:normal;text-align:center;line-height:125%;writing-mode:lr-tb;text-anchor:middle;fill:#000000;fill-opacity:1;stroke:none;stroke-width:1px;stroke-linecap:butt;stroke-linejoin:miter;stroke-opacity:1;font-family:Lucida Grande;-inkscape-font-specification:Lucida Grande"
       x="127.25967"
       y="65.167862"
       id="text3181"
       sodipodi:linespacing="125%"><tspan
         sodipodi:role="line"
         id="tspan3183"
         x="127.25967"
         y="65.167862">idea</tspan></text>
    <path
       sodipodi:nodetypes="cc"
       id="path5552"
       d="M 139.26348,211.61469 L 172.87424,247.62621"
       style="opacity:0.5;fill:none;fill-rule:evenodd;stroke:#000000;stroke-width:1.20038378px;stroke-linecap:butt;stroke-linejoin:miter;marker-end:url(#Arrow1Mend);stroke-opacity:1" />
    <path
       style="fill:none;fill-rule:evenodd;stroke:#000000;stroke-width:1.20038378px;stroke-linecap:butt;stroke-linejoin:miter;marker-end:url(#Arrow1Mend);stroke-opacity:1"
       d="M 123.6585,99.979002 L 123.6585,140.79205"
       id="path5554"
       sodipodi:nodetypes="cc" />
    <path
       id="path6099"
       d="M 136.31268,165.66067 L 145.97174,180.04651"
       style="fill:none;fill-rule:evenodd;stroke:#000000;stroke-width:1.20038378;stroke-linecap:butt;stroke-linejoin:miter;stroke-miterlimit:4;stroke-dasharray:none;stroke-opacity:1"
       sodipodi:nodetypes="cc" />
    <path
       style="fill:none;fill-rule:evenodd;stroke:#000000;stroke-width:1.20038378;stroke-linecap:butt;stroke-linejoin:miter;stroke-miterlimit:4;stroke-dasharray:none;stroke-opacity:1"
       d="M 136.31268,165.66067 L 127.27016,180.04651"
       id="path6097" />
    <path
       sodipodi:type="arc"
       style="opacity:1;fill:#ffffff;fill-opacity:1;stroke:#000000;stroke-width:1;stroke-miterlimit:4;stroke-dasharray:none;stroke-dashoffset:0;stroke-opacity:1"
       id="path6091"
       sodipodi:cx="455.5394"
       sodipodi:cy="160.11171"
       sodipodi:rx="4.2894483"
       sodipodi:ry="4.2894483"
       d="M 459.82885,160.11171 A 4.2894483,4.2894483 0 1 1 451.24995,160.11171 A 4.2894483,4.2894483 0 1 1 459.82885,160.11171 z"
       transform="matrix(1.2003837,0,0,1.2003837,-410.55435,-26.439637)" />
    <path
       sodipodi:nodetypes="cc"
       style="fill:none;fill-rule:evenodd;stroke:#000000;stroke-width:1.20038378;stroke-linecap:butt;stroke-linejoin:miter;stroke-miterlimit:4;stroke-dasharray:none;stroke-opacity:1"
       d="M 145.97174,179.63548 L 155.63079,194.02131"
       id="path6101" />
    <path
       transform="matrix(1.2003837,0,0,1.2003837,-419.59687,-12.259318)"
       d="M 459.82885,160.11171 A 4.2894483,4.2894483 0 1 1 451.24995,160.11171 A 4.2894483,4.2894483 0 1 1 459.82885,160.11171 z"
       sodipodi:ry="4.2894483"
       sodipodi:rx="4.2894483"
       sodipodi:cy="160.11171"
       sodipodi:cx="455.5394"
       id="path6093"
       style="opacity:1;fill:#ffffff;fill-opacity:1;stroke:#000000;stroke-width:1;stroke-miterlimit:4;stroke-dasharray:none;stroke-dashoffset:0;stroke-opacity:1"
       sodipodi:type="arc" />
    <path
       id="path6103"
       d="M 145.97174,179.63548 L 136.92921,194.02131"
       style="fill:none;fill-rule:evenodd;stroke:#000000;stroke-width:1.20038378;stroke-linecap:butt;stroke-linejoin:miter;stroke-miterlimit:4;stroke-dasharray:none;stroke-opacity:1" />
    <path
       sodipodi:type="arc"
       style="opacity:1;fill:#ffffff;fill-opacity:1;stroke:#000000;stroke-width:1;stroke-miterlimit:4;stroke-dasharray:none;stroke-dashoffset:0;stroke-opacity:1"
       id="path6095"
       sodipodi:cx="455.5394"
       sodipodi:cy="160.11171"
       sodipodi:rx="4.2894483"
       sodipodi:ry="4.2894483"
       d="M 459.82885,160.11171 A 4.2894483,4.2894483 0 1 1 451.24995,160.11171 A 4.2894483,4.2894483 0 1 1 459.82885,160.11171 z"
       transform="matrix(1.2003837,0,0,1.2003837,-400.89529,-12.259318)" />
    <path
       sodipodi:type="arc"
       style="opacity:1;fill:#ffffff;fill-opacity:1;stroke:#000000;stroke-width:1;stroke-miterlimit:4;stroke-dasharray:none;stroke-dashoffset:0;stroke-opacity:1"
       id="path6105"
       sodipodi:cx="455.5394"
       sodipodi:cy="160.11171"
       sodipodi:rx="4.2894483"
       sodipodi:ry="4.2894483"
       d="M 459.82885,160.11171 A 4.2894483,4.2894483 0 1 1 451.24995,160.11171 A 4.2894483,4.2894483 0 1 1 459.82885,160.11171 z"
       transform="matrix(1.2003837,0,0,1.2003837,-409.93782,1.715487)" />
    <path
       transform="matrix(1.2003837,0,0,1.2003837,-391.23624,1.715487)"
       d="M 459.82885,160.11171 A 4.2894483,4.2894483 0 1 1 451.24995,160.11171 A 4.2894483,4.2894483 0 1 1 459.82885,160.11171 z"
       sodipodi:ry="4.2894483"
       sodipodi:rx="4.2894483"
       sodipodi:cy="160.11171"
       sodipodi:cx="455.5394"
       id="path6107"
       style="opacity:1;fill:#ffffff;fill-opacity:1;stroke:#000000;stroke-width:1;stroke-miterlimit:4;stroke-dasharray:none;stroke-dashoffset:0;stroke-opacity:1"
       sodipodi:type="arc" />
    <path
       sodipodi:type="arc"
       style="opacity:1;fill:none;fill-opacity:1;stroke:#000000;stroke-width:1;marker-end:url(#Arrow1Mend);stroke-miterlimit:4;stroke-dasharray:2, 1;stroke-dashoffset:0;stroke-opacity:1"
       id="path6129"
       sodipodi:cx="587"
       sodipodi:cy="256"
       sodipodi:rx="123"
       sodipodi:ry="123"
       d="M 482.07153,320.17956 A 123,123 0 0 1 495.44104,173.86623"
       transform="matrix(1.2003837,0,0,1.2003837,-514.94566,-132.89545)"
       sodipodi:start="2.5926506"
       sodipodi:end="3.8727804"
       sodipodi:open="true" />
    <path
       style="fill:none;fill-rule:evenodd;stroke:#000000;stroke-width:1.20038378px;stroke-linecap:butt;stroke-linejoin:miter;marker-end:url(#Arrow1Mend);stroke-opacity:1"
       d="M 108.88442,211.61469 L 75.273678,247.62621"
       id="path7730"
       sodipodi:nodetypes="cc" />
    <path
       sodipodi:nodetypes="cc"
       style="fill:none;fill-rule:evenodd;stroke:#000000;stroke-width:1.20038378;stroke-linecap:butt;stroke-linejoin:miter;stroke-miterlimit:4;stroke-dasharray:none;stroke-opacity:1"
       d="M 78.729742,269.62986 L 88.388802,284.0157"
       id="path8541" />
    <path
       id="path8543"
       d="M 78.729742,269.62986 L 69.687222,284.0157"
       style="fill:none;fill-rule:evenodd;stroke:#000000;stroke-width:1.20038378;stroke-linecap:butt;stroke-linejoin:miter;stroke-miterlimit:4;stroke-dasharray:none;stroke-opacity:1" />
    <path
       transform="matrix(1.2003837,0,0,1.2003837,-468.13729,77.529557)"
       d="M 459.82885,160.11171 A 4.2894483,4.2894483 0 1 1 451.24995,160.11171 A 4.2894483,4.2894483 0 1 1 459.82885,160.11171 z"
       sodipodi:ry="4.2894483"
       sodipodi:rx="4.2894483"
       sodipodi:cy="160.11171"
       sodipodi:cx="455.5394"
       id="path8545"
       style="opacity:1;fill:#ffffff;fill-opacity:1;stroke:#000000;stroke-width:1;stroke-miterlimit:4;stroke-dasharray:none;stroke-dashoffset:0;stroke-opacity:1"
       sodipodi:type="arc" />
    <path
       id="path8547"
       d="M 88.388802,283.60467 L 98.047852,297.9905"
       style="fill:none;fill-rule:evenodd;stroke:#000000;stroke-width:1.20038378;stroke-linecap:butt;stroke-linejoin:miter;stroke-miterlimit:4;stroke-dasharray:none;stroke-opacity:1"
       sodipodi:nodetypes="cc" />
    <path
       sodipodi:type="arc"
       style="opacity:1;fill:#ffffff;fill-opacity:1;stroke:#000000;stroke-width:1;stroke-miterlimit:4;stroke-dasharray:none;stroke-dashoffset:0;stroke-opacity:1"
       id="path8549"
       sodipodi:cx="455.5394"
       sodipodi:cy="160.11171"
       sodipodi:rx="4.2894483"
       sodipodi:ry="4.2894483"
       d="M 459.82885,160.11171 A 4.2894483,4.2894483 0 1 1 451.24995,160.11171 A 4.2894483,4.2894483 0 1 1 459.82885,160.11171 z"
       transform="matrix(1.2003837,0,0,1.2003837,-477.17981,91.709876)" />
    <path
       style="fill:none;fill-rule:evenodd;stroke:#000000;stroke-width:1.20038378;stroke-linecap:butt;stroke-linejoin:miter;stroke-miterlimit:4;stroke-dasharray:none;stroke-opacity:1"
       d="M 88.388802,283.60467 L 79.346272,297.9905"
       id="path8551" />
    <path
       transform="matrix(1.2003837,0,0,1.2003837,-458.47823,91.709876)"
       d="M 459.82885,160.11171 A 4.2894483,4.2894483 0 1 1 451.24995,160.11171 A 4.2894483,4.2894483 0 1 1 459.82885,160.11171 z"
       sodipodi:ry="4.2894483"
       sodipodi:rx="4.2894483"
       sodipodi:cy="160.11171"
       sodipodi:cx="455.5394"
       id="path8553"
       style="opacity:1;fill:#ffffff;fill-opacity:1;stroke:#000000;stroke-width:1;stroke-miterlimit:4;stroke-dasharray:none;stroke-dashoffset:0;stroke-opacity:1"
       sodipodi:type="arc" />
    <path
       transform="matrix(1.2003837,0,0,1.2003837,-467.52076,105.68468)"
       d="M 459.82885,160.11171 A 4.2894483,4.2894483 0 1 1 451.24995,160.11171 A 4.2894483,4.2894483 0 1 1 459.82885,160.11171 z"
       sodipodi:ry="4.2894483"
       sodipodi:rx="4.2894483"
       sodipodi:cy="160.11171"
       sodipodi:cx="455.5394"
       id="path8555"
       style="opacity:1;fill:#ffffff;fill-opacity:1;stroke:#000000;stroke-width:1;stroke-miterlimit:4;stroke-dasharray:none;stroke-dashoffset:0;stroke-opacity:1"
       sodipodi:type="arc" />
    <path
       sodipodi:type="arc"
       style="opacity:1;fill:#ffffff;fill-opacity:1;stroke:#000000;stroke-width:1;stroke-miterlimit:4;stroke-dasharray:none;stroke-dashoffset:0;stroke-opacity:1"
       id="path8557"
       sodipodi:cx="455.5394"
       sodipodi:cy="160.11171"
       sodipodi:rx="4.2894483"
       sodipodi:ry="4.2894483"
       d="M 459.82885,160.11171 A 4.2894483,4.2894483 0 1 1 451.24995,160.11171 A 4.2894483,4.2894483 0 1 1 459.82885,160.11171 z"
       transform="matrix(1.2003837,0,0,1.2003837,-448.81918,105.68468)" />
    <g
       id="g8577"
       style="opacity:0.5">
      <path
         sodipodi:nodetypes="cc"
         style="fill:none;fill-rule:evenodd;stroke:#000000;stroke-width:1.20038378;stroke-linecap:butt;stroke-linejoin:miter;stroke-miterlimit:4;stroke-dasharray:none;stroke-opacity:1"
         d="M 191.76292,269.62986 L 201.42198,284.0157"
         id="path8559" />
      <path
         id="path8561"
         d="M 191.76292,269.62986 L 182.7204,284.0157"
         style="fill:none;fill-rule:evenodd;stroke:#000000;stroke-width:1.20038378;stroke-linecap:butt;stroke-linejoin:miter;stroke-miterlimit:4;stroke-dasharray:none;stroke-opacity:1" />
      <path
         transform="matrix(1.2003837,0,0,1.2003837,-355.10411,77.529557)"
         d="M 459.82885,160.11171 A 4.2894483,4.2894483 0 1 1 451.24995,160.11171 A 4.2894483,4.2894483 0 1 1 459.82885,160.11171 z"
         sodipodi:ry="4.2894483"
         sodipodi:rx="4.2894483"
         sodipodi:cy="160.11171"
         sodipodi:cx="455.5394"
         id="path8563"
         style="opacity:1;fill:#ffffff;fill-opacity:1;stroke:#000000;stroke-width:1;stroke-miterlimit:4;stroke-dasharray:none;stroke-dashoffset:0;stroke-opacity:1"
         sodipodi:type="arc" />
      <path
         id="path8565"
         d="M 201.42198,283.60467 L 211.08103,297.9905"
         style="fill:none;fill-rule:evenodd;stroke:#000000;stroke-width:1.20038378;stroke-linecap:butt;stroke-linejoin:miter;stroke-miterlimit:4;stroke-dasharray:none;stroke-opacity:1"
         sodipodi:nodetypes="cc" />
      <path
         sodipodi:type="arc"
         style="opacity:1;fill:#ffffff;fill-opacity:1;stroke:#000000;stroke-width:1;stroke-miterlimit:4;stroke-dasharray:none;stroke-dashoffset:0;stroke-opacity:1"
         id="path8567"
         sodipodi:cx="455.5394"
         sodipodi:cy="160.11171"
         sodipodi:rx="4.2894483"
         sodipodi:ry="4.2894483"
         d="M 459.82885,160.11171 A 4.2894483,4.2894483 0 1 1 451.24995,160.11171 A 4.2894483,4.2894483 0 1 1 459.82885,160.11171 z"
         transform="matrix(1.2003837,0,0,1.2003837,-364.14663,91.709876)" />
      <path
         style="fill:none;fill-rule:evenodd;stroke:#000000;stroke-width:1.20038378;stroke-linecap:butt;stroke-linejoin:miter;stroke-miterlimit:4;stroke-dasharray:none;stroke-opacity:1"
         d="M 201.42198,283.60467 L 192.37945,297.9905"
         id="path8569" />
      <path
         transform="matrix(1.2003837,0,0,1.2003837,-345.44505,91.709876)"
         d="M 459.82885,160.11171 A 4.2894483,4.2894483 0 1 1 451.24995,160.11171 A 4.2894483,4.2894483 0 1 1 459.82885,160.11171 z"
         sodipodi:ry="4.2894483"
         sodipodi:rx="4.2894483"
         sodipodi:cy="160.11171"
         sodipodi:cx="455.5394"
         id="path8571"
         style="opacity:1;fill:#ffffff;fill-opacity:1;stroke:#000000;stroke-width:1;stroke-miterlimit:4;stroke-dasharray:none;stroke-dashoffset:0;stroke-opacity:1"
         sodipodi:type="arc" />
      <path
         transform="matrix(1.2003837,0,0,1.2003837,-354.48758,105.68468)"
         d="M 459.82885,160.11171 A 4.2894483,4.2894483 0 1 1 451.24995,160.11171 A 4.2894483,4.2894483 0 1 1 459.82885,160.11171 z"
         sodipodi:ry="4.2894483"
         sodipodi:rx="4.2894483"
         sodipodi:cy="160.11171"
         sodipodi:cx="455.5394"
         id="path8573"
         style="opacity:1;fill:#ffffff;fill-opacity:1;stroke:#000000;stroke-width:1;stroke-miterlimit:4;stroke-dasharray:none;stroke-dashoffset:0;stroke-opacity:1"
         sodipodi:type="arc" />
      <path
         sodipodi:type="arc"
         style="opacity:1;fill:#ffffff;fill-opacity:1;stroke:#000000;stroke-width:1;stroke-miterlimit:4;stroke-dasharray:none;stroke-dashoffset:0;stroke-opacity:1"
         id="path8575"
         sodipodi:cx="455.5394"
         sodipodi:cy="160.11171"
         sodipodi:rx="4.2894483"
         sodipodi:ry="4.2894483"
         d="M 459.82885,160.11171 A 4.2894483,4.2894483 0 1 1 451.24995,160.11171 A 4.2894483,4.2894483 0 1 1 459.82885,160.11171 z"
         transform="matrix(1.2003837,0,0,1.2003837,-335.786,105.68468)" />
    </g>
    <text
       sodipodi:linespacing="125%"
       id="text2429"
       y="268.30768"
       x="162.44923"
       style="font-size:14.40460586999999926px;font-style:normal;font-variant:normal;font-weight:normal;font-stretch:normal;text-align:center;line-height:125%;writing-mode:lr-tb;text-anchor:middle;fill:#000000;fill-opacity:1;stroke:none;stroke-width:1px;stroke-linecap:butt;stroke-linejoin:miter;stroke-opacity:1;font-family:Lucida Grande;-inkscape-font-specification:Lucida Grande;opacity:0.50000000000000000;"
       xml:space="preserve"><tspan
         y="268.30768"
         x="162.44923"
         id="tspan2431"
         sodipodi:role="line">kernel</tspan></text>
    <text
       sodipodi:linespacing="125%"
       id="text3257"
       y="268.30768"
       x="42.484783"
       style="font-size:14.40460587px;font-style:normal;font-variant:normal;font-weight:normal;font-stretch:normal;text-align:center;line-height:125%;writing-mode:lr-tb;text-anchor:middle;fill:#000000;fill-opacity:1;stroke:none;stroke-width:1px;stroke-linecap:butt;stroke-linejoin:miter;stroke-opacity:1;font-family:Lucida Grande;-inkscape-font-specification:Lucida Grande"
       xml:space="preserve"><tspan
         y="268.30768"
         x="42.484783"
         id="tspan3259"
         sodipodi:role="line">view</tspan></text>
  </g>
</svg>
