<?xml version="1.0" encoding="UTF-8" standalone="no"?>
<!-- Created with Inkscape (http://www.inkscape.org/) -->
<svg
   xmlns:dc="http://purl.org/dc/elements/1.1/"
   xmlns:cc="http://creativecommons.org/ns#"
   xmlns:rdf="http://www.w3.org/1999/02/22-rdf-syntax-ns#"
   xmlns:svg="http://www.w3.org/2000/svg"
   xmlns="http://www.w3.org/2000/svg"
   xmlns:sodipodi="http://sodipodi.sourceforge.net/DTD/sodipodi-0.dtd"
   xmlns:inkscape="http://www.inkscape.org/namespaces/inkscape"
   width="243"
   height="337.5"
   id="svg2"
   sodipodi:version="0.32"
   inkscape:version="0.46"
   version="1.0"
   sodipodi:docname="figure2.svg"
   inkscape:output_extension="org.inkscape.output.svg.inkscape">
  <defs
     id="defs4">
    <marker
       inkscape:stockid="Arrow1Mstart"
       orient="auto"
       refY="0"
       refX="0"
       id="Arrow1Mstart"
       style="overflow:visible">
      <path
         id="path3196"
         d="M 0,0 L 5,-5 L -12.5,0 L 5,5 L 0,0 z"
         style="fill-rule:evenodd;stroke:#000000;stroke-width:1pt;marker-start:none"
         transform="matrix(0.4,0,0,0.4,4,0)" />
    </marker>
    <marker
       inkscape:stockid="Arrow1Mend"
       orient="auto"
       refY="0"
       refX="0"
       id="Arrow1Mend"
       style="overflow:visible">
      <path
         id="path3199"
         d="M 0,0 L 5,-5 L -12.5,0 L 5,5 L 0,0 z"
         style="fill-rule:evenodd;stroke:#000000;stroke-width:1pt;marker-start:none"
         transform="matrix(-0.4,0,0,-0.4,-4,0)" />
    </marker>
    <marker
       inkscape:stockid="Arrow1Send"
       orient="auto"
       refY="0"
       refX="0"
       id="Arrow1Send"
       style="overflow:visible">
      <path
         id="path3205"
         d="M 0,0 L 5,-5 L -12.5,0 L 5,5 L 0,0 z"
         style="fill-rule:evenodd;stroke:#000000;stroke-width:1pt;marker-start:none"
         transform="matrix(-0.2,0,0,-0.2,-1.2,0)" />
    </marker>
    <marker
       inkscape:stockid="Arrow1Sstart"
       orient="auto"
       refY="0"
       refX="0"
       id="Arrow1Sstart"
       style="overflow:visible">
      <path
         id="path3202"
         d="M 0,0 L 5,-5 L -12.5,0 L 5,5 L 0,0 z"
         style="fill-rule:evenodd;stroke:#000000;stroke-width:1pt;marker-start:none"
         transform="matrix(0.2,0,0,0.2,1.2,0)" />
    </marker>
    <marker
       inkscape:stockid="Arrow1Lend"
       orient="auto"
       refY="0"
       refX="0"
       id="Arrow1Lend"
       style="overflow:visible">
      <path
         id="path3193"
         d="M 0,0 L 5,-5 L -12.5,0 L 5,5 L 0,0 z"
         style="fill-rule:evenodd;stroke:#000000;stroke-width:1pt;marker-start:none"
         transform="matrix(-0.8,0,0,-0.8,-10,0)" />
    </marker>
    <inkscape:perspective
       sodipodi:type="inkscape:persp3d"
       inkscape:vp_x="0 : 526.18109 : 1"
       inkscape:vp_y="0 : 1000 : 0"
       inkscape:vp_z="744.09448 : 526.18109 : 1"
       inkscape:persp3d-origin="372.04724 : 350.78739 : 1"
       id="perspective10" />
  </defs>
  <sodipodi:namedview
     id="base"
     pagecolor="#ffffff"
     bordercolor="#666666"
     borderopacity="1.0"
     gridtolerance="10000"
     guidetolerance="10"
     objecttolerance="10"
     inkscape:pageopacity="0.0"
     inkscape:pageshadow="2"
     inkscape:zoom="1.9644444"
     inkscape:cx="121.5"
     inkscape:cy="168.75"
     inkscape:document-units="px"
     inkscape:current-layer="layer1"
     showgrid="false"
     units="in"
     inkscape:window-width="1241"
     inkscape:window-height="878"
     inkscape:window-x="0"
     inkscape:window-y="0" />
  <metadata
     id="metadata7">
    <rdf:RDF>
      <cc:Work
         rdf:about="">
        <dc:format>image/svg+xml</dc:format>
        <dc:type
           rdf:resource="http://purl.org/dc/dcmitype/StillImage" />
      </cc:Work>
    </rdf:RDF>
  </metadata>
  <g
     inkscape:label="Layer 1"
     inkscape:groupmode="layer"
     id="layer1">
    <rect
       style="opacity:1;fill:none;fill-opacity:1;stroke:#000000;stroke-width:0.60019189;stroke-miterlimit:4;stroke-dasharray:none;stroke-opacity:1"
       id="rect2383"
       width="84.617188"
       height="56.0835"
       x="83.317741"
       y="150.04089" />
    <rect
       y="254.33655"
       x="25.266397"
       height="56.0835"
       width="84.617188"
       id="rect3159"
       style="opacity:1;fill:none;fill-opacity:1;stroke:#000000;stroke-width:0.60019189;stroke-miterlimit:4;stroke-dasharray:none;stroke-opacity:1" />
    <rect
       style="opacity:0.5;fill:none;fill-opacity:1;stroke:#000000;stroke-width:0.60019189;stroke-miterlimit:4;stroke-dasharray:none;stroke-opacity:1"
       id="rect3161"
       width="84.617188"
       height="56.0835"
       x="138.41733"
       y="254.33655" />
    <text
       xml:space="preserve"
       style="font-size:14.40460587px;font-style:normal;font-variant:normal;font-weight:normal;font-stretch:normal;text-align:center;line-height:125%;writing-mode:lr-tb;text-anchor:middle;fill:#000000;fill-opacity:1;stroke:none;stroke-width:1px;stroke-linecap:butt;stroke-linejoin:miter;stroke-opacity:1;font-family:Lucida Grande;-inkscape-font-specification:Lucida Grande"
       x="108.40929"
       y="162.11"
       id="text3163"
       sodipodi:linespacing="125%"><tspan
         sodipodi:role="line"
         id="tspan3165"
         x="108.40929"
         y="162.11">source</tspan></text>
    <path
       style="fill:none;fill-rule:evenodd;stroke:#000000;stroke-width:0.60019189;stroke-linecap:butt;stroke-linejoin:miter;stroke-miterlimit:4;stroke-dasharray:none;stroke-opacity:1"
       d="M 82.619343,50.655939 C 76.667793,34.304378 93.487338,24.795416 108.36483,28.437237 C 118.17062,19.965602 134.72243,19.887134 143.41715,31.837574 C 155.22105,24.139899 180.50837,37.218272 177.78962,50.215364 C 186.04749,59.6129 178.05068,79.086669 164.16558,82.984914 C 163.83219,92.677302 130.13291,101.82069 122.63015,91.528017 C 107.77572,96.758097 87.075348,83.643542 86.920098,76.615187 C 76.123158,70.028285 73.797843,62.094168 82.619343,50.655939 z"
       id="path3179"
       sodipodi:nodetypes="cccccccc" />
    <text
       xml:space="preserve"
       style="font-size:14.40460587px;font-style:normal;font-variant:normal;font-weight:normal;font-stretch:normal;text-align:center;line-height:125%;writing-mode:lr-tb;text-anchor:middle;fill:#000000;fill-opacity:1;stroke:none;stroke-width:1px;stroke-linecap:butt;stroke-linejoin:miter;stroke-opacity:1;font-family:Lucida Grande;-inkscape-font-specification:Lucida Grande"
       x="127.25967"
       y="65.167862"
       id="text3181"
       sodipodi:linespacing="125%"><tspan
         sodipodi:role="line"
         id="tspan3183"
         x="127.25967"
         y="65.167862">idea</tspan></text>
    <path
       sodipodi:nodetypes="cc"
       id="path5552"
       d="M 139.26348,211.61469 L 172.87424,247.62621"
       style="opacity:0.5;fill:none;fill-rule:evenodd;stroke:#000000;stroke-width:1.20038378px;stroke-linecap:butt;stroke-linejoin:miter;marker-end:url(#Arrow1Mend);stroke-opacity:1" />
    <path
       style="fill:none;fill-rule:evenodd;stroke:#000000;stroke-width:1.20038378px;stroke-linecap:butt;stroke-linejoin:miter;marker-end:url(#Arrow1Mend);stroke-opacity:1"
       d="M 123.6585,99.979002 L 123.6585,140.79205"
       id="path5554"
       sodipodi:nodetypes="cc" />
    <path
       id="path6099"
       d="M 138.85793,166.67877 L 148.51699,181.06461"
       style="fill:none;fill-rule:evenodd;stroke:#000000;stroke-width:1.20038378;stroke-linecap:butt;stroke-linejoin:miter;stroke-miterlimit:4;stroke-dasharray:none;stroke-opacity:1"
       sodipodi:nodetypes="cc" />
    <path
       style="fill:none;fill-rule:evenodd;stroke:#000000;stroke-width:1.20038378;stroke-linecap:butt;stroke-linejoin:miter;stroke-miterlimit:4;stroke-dasharray:none;stroke-opacity:1"
       d="M 138.85793,166.67877 L 129.81541,181.06461"
       id="path6097" />
    <path
       sodipodi:type="arc"
       style="opacity:1;fill:#ffffff;fill-opacity:1;stroke:#000000;stroke-width:1;stroke-miterlimit:4;stroke-dasharray:none;stroke-dashoffset:0;stroke-opacity:1"
       id="path6091"
       sodipodi:cx="455.5394"
       sodipodi:cy="160.11171"
       sodipodi:rx="4.2894483"
       sodipodi:ry="4.2894483"
       d="M 459.82885,160.11171 A 4.2894483,4.2894483 0 1 1 451.24995,160.11171 A 4.2894483,4.2894483 0 1 1 459.82885,160.11171 z"
       transform="matrix(1.2003837,0,0,1.2003837,-408.0091,-25.421537)" />
    <path
       sodipodi:nodetypes="cc"
       style="fill:none;fill-rule:evenodd;stroke:#000000;stroke-width:1.20038378;stroke-linecap:butt;stroke-linejoin:miter;stroke-miterlimit:4;stroke-dasharray:none;stroke-opacity:1"
       d="M 148.51699,180.65358 L 158.17604,195.03941"
       id="path6101" />
    <path
       transform="matrix(1.2003837,0,0,1.2003837,-417.05162,-11.241218)"
       d="M 459.82885,160.11171 A 4.2894483,4.2894483 0 1 1 451.24995,160.11171 A 4.2894483,4.2894483 0 1 1 459.82885,160.11171 z"
       sodipodi:ry="4.2894483"
       sodipodi:rx="4.2894483"
       sodipodi:cy="160.11171"
       sodipodi:cx="455.5394"
       id="path6093"
       style="opacity:1;fill:#ffffff;fill-opacity:1;stroke:#000000;stroke-width:1;stroke-miterlimit:4;stroke-dasharray:none;stroke-dashoffset:0;stroke-opacity:1"
       sodipodi:type="arc" />
    <path
       id="path6103"
       d="M 148.51699,180.65358 L 139.47446,195.03941"
       style="fill:none;fill-rule:evenodd;stroke:#000000;stroke-width:1.20038378;stroke-linecap:butt;stroke-linejoin:miter;stroke-miterlimit:4;stroke-dasharray:none;stroke-opacity:1" />
    <path
       sodipodi:type="arc"
       style="opacity:1;fill:#ffffff;fill-opacity:1;stroke:#000000;stroke-width:1;stroke-miterlimit:4;stroke-dasharray:none;stroke-dashoffset:0;stroke-opacity:1"
       id="path6095"
       sodipodi:cx="455.5394"
       sodipodi:cy="160.11171"
       sodipodi:rx="4.2894483"
       sodipodi:ry="4.2894483"
       d="M 459.82885,160.11171 A 4.2894483,4.2894483 0 1 1 451.24995,160.11171 A 4.2894483,4.2894483 0 1 1 459.82885,160.11171 z"
       transform="matrix(1.2003837,0,0,1.2003837,-398.35004,-11.241218)" />
    <path
       sodipodi:type="arc"
       style="opacity:1;fill:#ffffff;fill-opacity:1;stroke:#000000;stroke-width:1;stroke-miterlimit:4;stroke-dasharray:none;stroke-dashoffset:0;stroke-opacity:1"
       id="path6105"
       sodipodi:cx="455.5394"
       sodipodi:cy="160.11171"
       sodipodi:rx="4.2894483"
       sodipodi:ry="4.2894483"
       d="M 459.82885,160.11171 A 4.2894483,4.2894483 0 1 1 451.24995,160.11171 A 4.2894483,4.2894483 0 1 1 459.82885,160.11171 z"
       transform="matrix(1.2003837,0,0,1.2003837,-407.39257,2.7335865)" />
    <path
       transform="matrix(1.2003837,0,0,1.2003837,-388.69099,2.7335865)"
       d="M 459.82885,160.11171 A 4.2894483,4.2894483 0 1 1 451.24995,160.11171 A 4.2894483,4.2894483 0 1 1 459.82885,160.11171 z"
       sodipodi:ry="4.2894483"
       sodipodi:rx="4.2894483"
       sodipodi:cy="160.11171"
       sodipodi:cx="455.5394"
       id="path6107"
       style="opacity:1;fill:#ffffff;fill-opacity:1;stroke:#000000;stroke-width:1;stroke-miterlimit:4;stroke-dasharray:none;stroke-dashoffset:0;stroke-opacity:1"
       sodipodi:type="arc" />
    <path
       sodipodi:type="arc"
       style="opacity:1;fill:none;fill-opacity:1;stroke:#000000;stroke-width:1;marker-end:url(#Arrow1Mend);stroke-miterlimit:4;stroke-dasharray:2, 1;stroke-dashoffset:0;stroke-opacity:1"
       id="path6129"
       sodipodi:cx="587"
       sodipodi:cy="256"
       sodipodi:rx="123"
       sodipodi:ry="123"
       d="M 482.07153,320.17956 A 123,123 0 0 1 495.44104,173.86623"
       transform="matrix(1.2003837,0,0,1.2003837,-520.54521,-135.94975)"
       sodipodi:start="2.5926506"
       sodipodi:end="3.8727804"
       sodipodi:open="true" />
    <path
       style="fill:none;fill-rule:evenodd;stroke:#000000;stroke-width:1.20038378px;stroke-linecap:butt;stroke-linejoin:miter;marker-end:url(#Arrow1Mend);stroke-opacity:1"
       d="M 108.88442,211.61469 L 75.273678,247.62621"
       id="path7730"
       sodipodi:nodetypes="cc" />
    <path
       sodipodi:nodetypes="cc"
       style="fill:none;fill-rule:evenodd;stroke:#000000;stroke-width:0.72023028;stroke-linecap:butt;stroke-linejoin:miter;stroke-miterlimit:4;stroke-dasharray:none;stroke-opacity:1"
       d="M 76.663078,266.4929 L 82.458514,275.1244"
       id="path8541" />
    <path
       id="path8543"
       d="M 76.663078,266.4929 L 71.237566,275.1244"
       style="fill:none;fill-rule:evenodd;stroke:#000000;stroke-width:0.72023028;stroke-linecap:butt;stroke-linejoin:miter;stroke-miterlimit:4;stroke-dasharray:none;stroke-opacity:1" />
    <path
       transform="matrix(0.7202302,0,0,0.7202302,-251.45714,151.23272)"
       d="M 459.82885,160.11171 A 4.2894483,4.2894483 0 1 1 451.24995,160.11171 A 4.2894483,4.2894483 0 1 1 459.82885,160.11171 z"
       sodipodi:ry="4.2894483"
       sodipodi:rx="4.2894483"
       sodipodi:cy="160.11171"
       sodipodi:cx="455.5394"
       id="path8545"
       style="opacity:1;fill:#ffffff;fill-opacity:1;stroke:#000000;stroke-width:1;stroke-miterlimit:4;stroke-dasharray:none;stroke-dashoffset:0;stroke-opacity:1"
       sodipodi:type="arc" />
    <path
       id="path8547"
       d="M 82.458514,274.87778 L 88.253944,283.50928"
       style="fill:none;fill-rule:evenodd;stroke:#000000;stroke-width:0.72023028;stroke-linecap:butt;stroke-linejoin:miter;stroke-miterlimit:4;stroke-dasharray:none;stroke-opacity:1"
       sodipodi:nodetypes="cc" />
    <path
       id="path2433"
       d="M 71.344065,274.87778 L 65.918547,283.50928"
       style="fill:none;fill-rule:evenodd;stroke:#000000;stroke-width:0.72023028;stroke-linecap:butt;stroke-linejoin:miter;stroke-miterlimit:4;stroke-dasharray:none;stroke-opacity:1" />
    <path
       sodipodi:type="arc"
       style="opacity:1;fill:#ffffff;fill-opacity:1;stroke:#000000;stroke-width:1;stroke-miterlimit:4;stroke-dasharray:none;stroke-dashoffset:0;stroke-opacity:1"
       id="path8549"
       sodipodi:cx="455.5394"
       sodipodi:cy="160.11171"
       sodipodi:rx="4.2894483"
       sodipodi:ry="4.2894483"
       d="M 459.82885,160.11171 A 4.2894483,4.2894483 0 1 1 451.24995,160.11171 A 4.2894483,4.2894483 0 1 1 459.82885,160.11171 z"
       transform="matrix(0.7202302,0,0,0.7202302,-256.88266,159.74091)" />
    <path
       sodipodi:nodetypes="cc"
       style="fill:none;fill-rule:evenodd;stroke:#000000;stroke-width:0.72023028;stroke-linecap:butt;stroke-linejoin:miter;stroke-miterlimit:4;stroke-dasharray:none;stroke-opacity:1"
       d="M 77.072281,283.51285 L 82.867711,292.14435"
       id="path2437" />
    <path
       style="fill:none;fill-rule:evenodd;stroke:#000000;stroke-width:0.72023028;stroke-linecap:butt;stroke-linejoin:miter;stroke-miterlimit:4;stroke-dasharray:none;stroke-opacity:1"
       d="M 82.458514,274.87778 L 77.032996,283.50928"
       id="path8551" />
    <path
       transform="matrix(0.7202302,0,0,0.7202302,-245.66171,159.74091)"
       d="M 459.82885,160.11171 A 4.2894483,4.2894483 0 1 1 451.24995,160.11171 A 4.2894483,4.2894483 0 1 1 459.82885,160.11171 z"
       sodipodi:ry="4.2894483"
       sodipodi:rx="4.2894483"
       sodipodi:cy="160.11171"
       sodipodi:cx="455.5394"
       id="path8553"
       style="opacity:1;fill:#ffffff;fill-opacity:1;stroke:#000000;stroke-width:1;stroke-miterlimit:4;stroke-dasharray:none;stroke-dashoffset:0;stroke-opacity:1"
       sodipodi:type="arc" />
    <path
       id="path2439"
       d="M 77.072281,283.51285 L 71.646763,292.14435"
       style="fill:none;fill-rule:evenodd;stroke:#000000;stroke-width:0.72023028;stroke-linecap:butt;stroke-linejoin:miter;stroke-miterlimit:4;stroke-dasharray:none;stroke-opacity:1" />
    <path
       transform="matrix(0.7202302,0,0,0.7202302,-251.08723,168.12579)"
       d="M 459.82885,160.11171 A 4.2894483,4.2894483 0 1 1 451.24995,160.11171 A 4.2894483,4.2894483 0 1 1 459.82885,160.11171 z"
       sodipodi:ry="4.2894483"
       sodipodi:rx="4.2894483"
       sodipodi:cy="160.11171"
       sodipodi:cx="455.5394"
       id="path8555"
       style="opacity:1;fill:#ffffff;fill-opacity:1;stroke:#000000;stroke-width:1;stroke-miterlimit:4;stroke-dasharray:none;stroke-dashoffset:0;stroke-opacity:1"
       sodipodi:type="arc" />
    <path
       sodipodi:type="arc"
       style="opacity:1;fill:#ffffff;fill-opacity:1;stroke:#000000;stroke-width:1;stroke-miterlimit:4;stroke-dasharray:none;stroke-dashoffset:0;stroke-opacity:1"
       id="path2441"
       sodipodi:cx="455.5394"
       sodipodi:cy="160.11171"
       sodipodi:rx="4.2894483"
       sodipodi:ry="4.2894483"
       d="M 459.82885,160.11171 A 4.2894483,4.2894483 0 1 1 451.24995,160.11171 A 4.2894483,4.2894483 0 1 1 459.82885,160.11171 z"
       transform="matrix(0.7202302,0,0,0.7202302,-256.47346,176.76086)" />
    <path
       sodipodi:type="arc"
       style="opacity:1;fill:#ffffff;fill-opacity:1;stroke:#000000;stroke-width:1;stroke-miterlimit:4;stroke-dasharray:none;stroke-dashoffset:0;stroke-opacity:1"
       id="path8557"
       sodipodi:cx="455.5394"
       sodipodi:cy="160.11171"
       sodipodi:rx="4.2894483"
       sodipodi:ry="4.2894483"
       d="M 459.82885,160.11171 A 4.2894483,4.2894483 0 1 1 451.24995,160.11171 A 4.2894483,4.2894483 0 1 1 459.82885,160.11171 z"
       transform="matrix(0.7202302,0,0,0.7202302,-239.86628,168.12579)" />
    <text
       sodipodi:linespacing="125%"
       id="text2429"
       y="268.30768"
       x="162.44923"
       style="font-size:14.40460586999999926px;font-style:normal;font-variant:normal;font-weight:normal;font-stretch:normal;text-align:center;line-height:125%;writing-mode:lr-tb;text-anchor:middle;fill:#000000;fill-opacity:1;stroke:none;stroke-width:1px;stroke-linecap:butt;stroke-linejoin:miter;stroke-opacity:1;font-family:Lucida Grande;-inkscape-font-specification:Lucida Grande;opacity:0.50000000000000000;"
       xml:space="preserve"><tspan
         y="268.30768"
         x="162.44923"
         id="tspan2431"
         sodipodi:role="line">kernel</tspan></text>
    <text
       sodipodi:linespacing="125%"
       id="text3257"
       y="268.30768"
       x="42.484783"
       style="font-size:14.40460587px;font-style:normal;font-variant:normal;font-weight:normal;font-stretch:normal;text-align:center;line-height:125%;writing-mode:lr-tb;text-anchor:middle;fill:#000000;fill-opacity:1;stroke:none;stroke-width:1px;stroke-linecap:butt;stroke-linejoin:miter;stroke-opacity:1;font-family:Lucida Grande;-inkscape-font-specification:Lucida Grande"
       xml:space="preserve"><tspan
         y="268.30768"
         x="42.484783"
         id="tspan3259"
         sodipodi:role="line">view</tspan></text>
    <path
       id="path2445"
       d="M 82.800497,291.80594 L 88.595927,300.43744"
       style="fill:none;fill-rule:evenodd;stroke:#000000;stroke-width:0.72023028;stroke-linecap:butt;stroke-linejoin:miter;stroke-miterlimit:4;stroke-dasharray:none;stroke-opacity:1"
       sodipodi:nodetypes="cc" />
    <path
       transform="matrix(0.7202302,0,0,0.7202302,-245.25251,176.76086)"
       d="M 459.82885,160.11171 A 4.2894483,4.2894483 0 1 1 451.24995,160.11171 A 4.2894483,4.2894483 0 1 1 459.82885,160.11171 z"
       sodipodi:ry="4.2894483"
       sodipodi:rx="4.2894483"
       sodipodi:cy="160.11171"
       sodipodi:cx="455.5394"
       id="path2443"
       style="opacity:1;fill:#ffffff;fill-opacity:1;stroke:#000000;stroke-width:1;stroke-miterlimit:4;stroke-dasharray:none;stroke-dashoffset:0;stroke-opacity:1"
       sodipodi:type="arc" />
    <path
       sodipodi:type="arc"
       style="opacity:1;fill:#ffffff;fill-opacity:1;stroke:#000000;stroke-width:1;stroke-miterlimit:4;stroke-dasharray:none;stroke-dashoffset:0;stroke-opacity:1"
       id="path2435"
       sodipodi:cx="455.5394"
       sodipodi:cy="160.11171"
       sodipodi:rx="4.2894483"
       sodipodi:ry="4.2894483"
       d="M 459.82885,160.11171 A 4.2894483,4.2894483 0 1 1 451.24995,160.11171 A 4.2894483,4.2894483 0 1 1 459.82885,160.11171 z"
       transform="matrix(0.7202302,0,0,0.7202302,-262.20168,168.12579)" />
    <path
       sodipodi:type="arc"
       style="opacity:1;fill:#ffffff;fill-opacity:1;stroke:#000000;stroke-width:1;stroke-miterlimit:4;stroke-dasharray:none;stroke-dashoffset:0;stroke-opacity:1"
       id="path2447"
       sodipodi:cx="455.5394"
       sodipodi:cy="160.11171"
       sodipodi:rx="4.2894483"
       sodipodi:ry="4.2894483"
       d="M 459.82885,160.11171 A 4.2894483,4.2894483 0 1 1 451.24995,160.11171 A 4.2894483,4.2894483 0 1 1 459.82885,160.11171 z"
       transform="matrix(0.7202302,0,0,0.7202302,-239.52429,185.05395)" />
    <g
       id="g3274"
       style="opacity:0.5"
       transform="translate(3.8053769,-4.4972636)">
      <path
         sodipodi:nodetypes="cc"
         style="opacity:1;fill:none;fill-rule:evenodd;stroke:#000000;stroke-width:0.72023028;stroke-linecap:butt;stroke-linejoin:miter;stroke-miterlimit:4;stroke-dasharray:none;stroke-opacity:1"
         d="M 189.26878,272.99058 L 195.06421,281.62208"
         id="path8559" />
      <path
         id="path8561"
         d="M 189.26878,272.99058 L 183.84327,281.62208"
         style="opacity:1;fill:none;fill-rule:evenodd;stroke:#000000;stroke-width:0.72023028;stroke-linecap:butt;stroke-linejoin:miter;stroke-miterlimit:4;stroke-dasharray:none;stroke-opacity:1" />
      <path
         transform="matrix(0.7202302,0,0,0.7202302,-138.85144,157.73039)"
         d="M 459.82885,160.11171 A 4.2894483,4.2894483 0 1 1 451.24995,160.11171 A 4.2894483,4.2894483 0 1 1 459.82885,160.11171 z"
         sodipodi:ry="4.2894483"
         sodipodi:rx="4.2894483"
         sodipodi:cy="160.11171"
         sodipodi:cx="455.5394"
         id="path8563"
         style="opacity:1;fill:#ffffff;fill-opacity:1;stroke:#000000;stroke-width:1;stroke-miterlimit:4;stroke-dasharray:none;stroke-dashoffset:0;stroke-opacity:1"
         sodipodi:type="arc" />
      <path
         id="path8565"
         d="M 195.06421,281.37546 L 200.85964,290.00696"
         style="opacity:1;fill:none;fill-rule:evenodd;stroke:#000000;stroke-width:0.72023028;stroke-linecap:butt;stroke-linejoin:miter;stroke-miterlimit:4;stroke-dasharray:none;stroke-opacity:1"
         sodipodi:nodetypes="cc" />
      <path
         sodipodi:type="arc"
         style="opacity:1;fill:#ffffff;fill-opacity:1;stroke:#000000;stroke-width:1;stroke-miterlimit:4;stroke-dasharray:none;stroke-dashoffset:0;stroke-opacity:1"
         id="path8567"
         sodipodi:cx="455.5394"
         sodipodi:cy="160.11171"
         sodipodi:rx="4.2894483"
         sodipodi:ry="4.2894483"
         d="M 459.82885,160.11171 A 4.2894483,4.2894483 0 1 1 451.24995,160.11171 A 4.2894483,4.2894483 0 1 1 459.82885,160.11171 z"
         transform="matrix(0.7202302,0,0,0.7202302,-144.27695,166.23859)" />
      <path
         sodipodi:nodetypes="cc"
         style="opacity:1;fill:none;fill-rule:evenodd;stroke:#000000;stroke-width:0.72023028;stroke-linecap:butt;stroke-linejoin:miter;stroke-miterlimit:4;stroke-dasharray:none;stroke-opacity:1"
         d="M 200.82993,289.6781 L 206.62536,298.3096"
         id="path3258" />
      <path
         style="opacity:1;fill:none;fill-rule:evenodd;stroke:#000000;stroke-width:0.72023028;stroke-linecap:butt;stroke-linejoin:miter;stroke-miterlimit:4;stroke-dasharray:none;stroke-opacity:1"
         d="M 195.06421,281.37546 L 189.63869,290.00696"
         id="path8569" />
      <path
         transform="matrix(0.7202302,0,0,0.7202302,-133.056,166.23859)"
         d="M 459.82885,160.11171 A 4.2894483,4.2894483 0 1 1 451.24995,160.11171 A 4.2894483,4.2894483 0 1 1 459.82885,160.11171 z"
         sodipodi:ry="4.2894483"
         sodipodi:rx="4.2894483"
         sodipodi:cy="160.11171"
         sodipodi:cx="455.5394"
         id="path8571"
         style="opacity:1;fill:#ffffff;fill-opacity:1;stroke:#000000;stroke-width:1;stroke-miterlimit:4;stroke-dasharray:none;stroke-dashoffset:0;stroke-opacity:1"
         sodipodi:type="arc" />
      <path
         transform="matrix(0.7202302,0,0,0.7202302,-138.48152,174.62347)"
         d="M 459.82885,160.11171 A 4.2894483,4.2894483 0 1 1 451.24995,160.11171 A 4.2894483,4.2894483 0 1 1 459.82885,160.11171 z"
         sodipodi:ry="4.2894483"
         sodipodi:rx="4.2894483"
         sodipodi:cy="160.11171"
         sodipodi:cx="455.5394"
         id="path8573"
         style="opacity:1;fill:#ffffff;fill-opacity:1;stroke:#000000;stroke-width:1;stroke-miterlimit:4;stroke-dasharray:none;stroke-dashoffset:0;stroke-opacity:1"
         sodipodi:type="arc" />
      <path
         id="path3266"
         d="M 206.48034,297.98074 L 212.27577,306.61224"
         style="opacity:1;fill:none;fill-rule:evenodd;stroke:#000000;stroke-width:0.72023028;stroke-linecap:butt;stroke-linejoin:miter;stroke-miterlimit:4;stroke-dasharray:none;stroke-opacity:1"
         sodipodi:nodetypes="cc" />
      <path
         id="path3260"
         d="M 200.82993,289.6781 L 195.40441,298.3096"
         style="opacity:1;fill:none;fill-rule:evenodd;stroke:#000000;stroke-width:0.72023028;stroke-linecap:butt;stroke-linejoin:miter;stroke-miterlimit:4;stroke-dasharray:none;stroke-opacity:1" />
      <path
         sodipodi:type="arc"
         style="opacity:1;fill:#ffffff;fill-opacity:1;stroke:#000000;stroke-width:1;stroke-miterlimit:4;stroke-dasharray:none;stroke-dashoffset:0;stroke-opacity:1"
         id="path8575"
         sodipodi:cx="455.5394"
         sodipodi:cy="160.11171"
         sodipodi:rx="4.2894483"
         sodipodi:ry="4.2894483"
         d="M 459.82885,160.11171 A 4.2894483,4.2894483 0 1 1 451.24995,160.11171 A 4.2894483,4.2894483 0 1 1 459.82885,160.11171 z"
         transform="matrix(0.7202302,0,0,0.7202302,-127.26057,174.62347)" />
      <path
         sodipodi:type="arc"
         style="opacity:1;fill:#ffffff;fill-opacity:1;stroke:#000000;stroke-width:1;stroke-miterlimit:4;stroke-dasharray:none;stroke-dashoffset:0;stroke-opacity:1"
         id="path3262"
         sodipodi:cx="455.5394"
         sodipodi:cy="160.11171"
         sodipodi:rx="4.2894483"
         sodipodi:ry="4.2894483"
         d="M 459.82885,160.11171 A 4.2894483,4.2894483 0 1 1 451.24995,160.11171 A 4.2894483,4.2894483 0 1 1 459.82885,160.11171 z"
         transform="matrix(0.7202302,0,0,0.7202302,-132.7158,182.92611)" />
      <path
         style="opacity:1;fill:none;fill-rule:evenodd;stroke:#000000;stroke-width:0.72023028;stroke-linecap:butt;stroke-linejoin:miter;stroke-miterlimit:4;stroke-dasharray:none;stroke-opacity:1"
         d="M 206.48034,297.98074 L 201.05482,306.61224"
         id="path3268" />
      <path
         transform="matrix(0.7202302,0,0,0.7202302,-121.49485,182.92611)"
         d="M 459.82885,160.11171 A 4.2894483,4.2894483 0 1 1 451.24995,160.11171 A 4.2894483,4.2894483 0 1 1 459.82885,160.11171 z"
         sodipodi:ry="4.2894483"
         sodipodi:rx="4.2894483"
         sodipodi:cy="160.11171"
         sodipodi:cx="455.5394"
         id="path3264"
         style="opacity:1;fill:#ffffff;fill-opacity:1;stroke:#000000;stroke-width:1;stroke-miterlimit:4;stroke-dasharray:none;stroke-dashoffset:0;stroke-opacity:1"
         sodipodi:type="arc" />
      <path
         transform="matrix(0.7202302,0,0,0.7202302,-127.06539,191.22875)"
         d="M 459.82885,160.11171 A 4.2894483,4.2894483 0 1 1 451.24995,160.11171 A 4.2894483,4.2894483 0 1 1 459.82885,160.11171 z"
         sodipodi:ry="4.2894483"
         sodipodi:rx="4.2894483"
         sodipodi:cy="160.11171"
         sodipodi:cx="455.5394"
         id="path3270"
         style="opacity:1;fill:#ffffff;fill-opacity:1;stroke:#000000;stroke-width:1;stroke-miterlimit:4;stroke-dasharray:none;stroke-dashoffset:0;stroke-opacity:1"
         sodipodi:type="arc" />
      <path
         sodipodi:type="arc"
         style="opacity:1;fill:#ffffff;fill-opacity:1;stroke:#000000;stroke-width:1;stroke-miterlimit:4;stroke-dasharray:none;stroke-dashoffset:0;stroke-opacity:1"
         id="path3272"
         sodipodi:cx="455.5394"
         sodipodi:cy="160.11171"
         sodipodi:rx="4.2894483"
         sodipodi:ry="4.2894483"
         d="M 459.82885,160.11171 A 4.2894483,4.2894483 0 1 1 451.24995,160.11171 A 4.2894483,4.2894483 0 1 1 459.82885,160.11171 z"
         transform="matrix(0.7202302,0,0,0.7202302,-115.84444,191.22875)" />
    </g>
  </g>
</svg>
