<?xml version="1.0" encoding="UTF-8" standalone="no"?>
<!-- Created with Inkscape (http://www.inkscape.org/) -->
<svg
   xmlns:dc="http://purl.org/dc/elements/1.1/"
   xmlns:cc="http://creativecommons.org/ns#"
   xmlns:rdf="http://www.w3.org/1999/02/22-rdf-syntax-ns#"
   xmlns:svg="http://www.w3.org/2000/svg"
   xmlns="http://www.w3.org/2000/svg"
   xmlns:sodipodi="http://sodipodi.sourceforge.net/DTD/sodipodi-0.dtd"
   xmlns:inkscape="http://www.inkscape.org/namespaces/inkscape"
   id="svg2403"
   sodipodi:version="0.32"
   inkscape:version="0.46"
   width="202.5"
   height="112.5"
   xml:space="preserve"
   sodipodi:docname="position-ann.svg"
   version="1.0"
   inkscape:output_extension="org.inkscape.output.svg.inkscape"><metadata
     id="metadata2408"><rdf:RDF><cc:Work
         rdf:about=""><dc:format>image/svg+xml</dc:format><dc:type
           rdf:resource="http://purl.org/dc/dcmitype/StillImage" /></cc:Work></rdf:RDF></metadata><defs
     id="defs2406"><marker
       inkscape:stockid="Arrow1Mend"
       orient="auto"
       refY="0"
       refX="0"
       id="Arrow1Mend"
       style="overflow:visible"><path
         id="path3349"
         d="M 0,0 L 5,-5 L -12.5,0 L 5,5 L 0,0 z"
         style="fill-rule:evenodd;stroke:#000000;stroke-width:1pt;marker-start:none"
         transform="matrix(-0.4,0,0,-0.4,-4,0)" /></marker><inkscape:perspective
       sodipodi:type="inkscape:persp3d"
       inkscape:vp_x="0 : 526.18109 : 1"
       inkscape:vp_y="0 : 1000 : 0"
       inkscape:vp_z="744.09448 : 526.18109 : 1"
       inkscape:persp3d-origin="372.04724 : 350.78739 : 1"
       id="perspective2410" /><clipPath
       clipPathUnits="userSpaceOnUse"
       id="clipPath2418"><path
         d="M 0,0 L 0,35.000002 L 164.00001,35.000002 L 164.00001,0 L 0,0 z"
         id="path2420" /></clipPath><clipPath
       clipPathUnits="userSpaceOnUse"
       id="clipPath2428"><path
         d="M -34.285715,-34.285715 L -34.285715,85.714295 L 528.00002,85.714295 L 528.00002,-34.285715 L -34.285715,-34.285715 z"
         id="path2430" /></clipPath><clipPath
       clipPathUnits="userSpaceOnUse"
       id="clipPath2438"><path
         d="M -82.285717,-34.285715 L -82.285717,85.714295 L 480.00002,85.714295 L 480.00002,-34.285715 L -82.285717,-34.285715 z"
         id="path2440" /></clipPath><clipPath
       clipPathUnits="userSpaceOnUse"
       id="clipPath2448"><path
         d="M -116.57143,-34.285715 L -116.57143,85.714295 L 445.7143,85.714295 L 445.7143,-34.285715 L -116.57143,-34.285715 z"
         id="path2450" /></clipPath><clipPath
       clipPathUnits="userSpaceOnUse"
       id="clipPath2458"><path
         d="M -168.00001,-34.285715 L -168.00001,85.714295 L 394.28575,85.714295 L 394.28575,-34.285715 L -168.00001,-34.285715 z"
         id="path2460" /></clipPath><clipPath
       clipPathUnits="userSpaceOnUse"
       id="clipPath2468"><path
         d="M -209.14286,-34.285715 L -209.14286,85.714295 L 353.1429,85.714295 L 353.1429,-34.285715 L -209.14286,-34.285715 z"
         id="path2470" /></clipPath><clipPath
       clipPathUnits="userSpaceOnUse"
       id="clipPath2478"><path
         d="M -332.57144,-34.285715 L -332.57144,85.714295 L 229.71432,85.714295 L 229.71432,-34.285715 L -332.57144,-34.285715 z"
         id="path2480" /></clipPath><clipPath
       clipPathUnits="userSpaceOnUse"
       id="clipPath2488"><path
         d="M -370.28573,-34.285715 L -370.28573,85.714295 L 192.00003,85.714295 L 192.00003,-34.285715 L -370.28573,-34.285715 z"
         id="path2490" /></clipPath><clipPath
       clipPathUnits="userSpaceOnUse"
       id="clipPath2498"><path
         d="M -408.00001,-34.285715 L -408.00001,85.714295 L 154.28575,85.714295 L 154.28575,-34.285715 L -408.00001,-34.285715 z"
         id="path2500" /></clipPath><clipPath
       clipPathUnits="userSpaceOnUse"
       id="clipPath2508"><path
         d="M -507.42859,-34.285715 L -507.42859,85.714295 L 54.857164,85.714295 L 54.857164,-34.285715 L -507.42859,-34.285715 z"
         id="path2510" /></clipPath></defs><sodipodi:namedview
     inkscape:window-height="842"
     inkscape:window-width="1227"
     inkscape:pageshadow="2"
     inkscape:pageopacity="0.0"
     guidetolerance="10.0"
     gridtolerance="10.0"
     objecttolerance="10.0"
     borderopacity="1.0"
     bordercolor="#666666"
     pagecolor="#ffffff"
     id="base"
     showgrid="false"
     inkscape:zoom="2.6777778"
     inkscape:cx="135"
     inkscape:cy="56.25"
     inkscape:window-x="0"
     inkscape:window-y="0"
     inkscape:current-layer="g2412"
     units="in" /><g
     id="g2412"
     inkscape:groupmode="layer"
     inkscape:label="position"
     transform="scale(0.225,0.2228571)"><g
       id="g2414"
       transform="matrix(4.1666668,0,0,4.1666668,56.532339,223.32473)"><g
         id="g2416"
         clip-path="url(#clipPath2418)"><path
           d="M 0,0 L 374,0 L 374,239 L 0,239 L 0,0 z"
           style="fill:#ffffff;fill-opacity:1;fill-rule:nonzero;stroke:none"
           id="path2422" /></g></g><g
       id="g2424"
       transform="matrix(1.2152778,0,0,1.2152778,98.199009,264.9914)"><g
         id="g2426"
         clip-path="url(#clipPath2428)"><path
           d="M 6.75,3.0480003 C 7.5,2.2980003 8.25,3.0480003 8.25,3.0480003 C 10.5,3.0480003 11.25,5.2980003 11.25,5.2980003 C 11.25,5.2980003 11.25,6.4230003 11.25,6.4230003 C 11.25,7.5480003 11.25,8.2980003 11.25,8.2980003 C 10.5,9.7980003 8.25,10.548 8.25,10.548 C 7.5,10.548 6.75,10.548 6.75,10.548 C 4.5,9.7980003 3.75,7.5480003 3.75,7.5480003 C 3,6.7980003 3.75,5.2980003 3.75,5.2980003 C 3.75,4.5480003 4.5,3.7980003 4.5,3.7980003 C 6,3.0480003 6.75,3.0480003 6.75,3.0480003 z M 6.75,14.298 C 11.25,14.298 10.5,14.298 10.5,14.298 L 11.25,14.298 L 11.25,24.048 L 11.25,33.048 L 12.75,33.048 L 14.25,33.048 L 14.25,34.548 L 14.25,36.048 L 13.5,36.048 L 10.5,36.048 C 8.25,36.048 5.25,36.048 5.25,36.048 C 2.25,36.048 2.25,36.048 2.25,36.048 L 2.25,36.048 L 2.25,34.548 L 2.25,33.048 L 3.75,33.048 L 5.25,33.048 L 5.25,26.298 C 5.25,18.798 5.25,18.798 5.25,18.798 C 5.25,18.048 4.5,18.048 4.5,18.048 C 3.75,17.298 3,17.298 3,17.298 L 2.25,17.298 L 2.25,16.548 L 2.25,15.048 L 2.25,15.048 L 6.75,14.298 z M 30.312012,2.2980003 L 32.562012,2.2980003 C 34.812012,3.0480003 35.562012,3.7980003 35.562012,3.7980003 C 37.062012,5.2980003 36.312012,7.5480003 36.312012,7.5480003 C 36.312012,8.2980003 35.562012,9.0480003 35.562012,9.0480003 C 34.062012,10.548 32.562012,9.7980003 32.562012,9.7980003 C 31.812012,9.7980003 31.062012,9.0480003 31.062012,9.0480003 C 30.312012,7.5480003 30.312012,6.0480003 30.312012,6.0480003 C 30.312012,5.2980003 31.062012,4.5480003 31.062012,4.5480003 L 31.062012,4.5480003 L 30.312012,4.5480003 C 27.312012,4.5480003 26.562012,7.5480003 26.562012,7.5480003 C 25.812012,8.2980003 25.812012,12.048 25.812012,12.048 L 25.812012,15.048 L 28.812012,15.048 L 31.812012,15.048 L 31.812012,15.798 L 31.812012,17.298 L 28.812012,17.298 L 26.562012,17.298 L 26.562012,25.548 L 26.562012,33.048 L 28.062012,33.048 L 30.312012,33.048 L 30.312012,34.548 L 30.312012,36.048 L 30.312012,36.048 L 26.562012,36.048 C 23.562012,36.048 20.562012,36.048 20.562012,36.048 C 17.562012,36.048 17.562012,36.048 17.562012,36.048 L 17.562012,36.048 L 17.562012,34.548 L 17.562012,33.048 L 19.062012,33.048 L 20.562012,33.048 L 20.562012,25.548 L 20.562012,17.298 L 19.062012,17.298 L 17.562012,17.298 L 17.562012,15.798 L 17.562012,15.048 L 19.062012,15.048 L 20.562012,15.048 L 20.562012,12.048 C 20.562012,9.0480003 20.562012,8.2980003 20.562012,8.2980003 C 22.062012,4.5480003 26.562012,3.0480003 26.562012,3.0480003 C 28.062012,3.0480003 30.312012,2.2980003 30.312012,2.2980003 z"
           style="fill:#000000;fill-opacity:1;fill-rule:nonzero;stroke:none"
           id="path2432" /></g></g><g
       id="g2434"
       transform="matrix(1.2152778,0,0,1.2152778,156.53234,264.9914)"><g
         id="g2436"
         clip-path="url(#clipPath2438)"><path
           d="M 10.5,15.048 C 11.25,15.048 12.75,15.048 12.75,15.048 C 13.5,15.048 14.25,15.798 14.25,15.798 C 15,16.548 15.75,17.298 15.75,17.298 L 15.75,17.298 L 16.5,17.298 C 17.25,16.548 18,15.798 18,15.798 C 18.75,15.048 19.5,15.048 19.5,15.048 C 21,14.298 22.5,15.048 22.5,15.048 C 23.25,15.798 24,15.798 24,15.798 C 24,16.548 24.75,16.548 24.75,16.548 C 24.75,18.048 24.75,19.548 24.75,19.548 C 24,21.048 22.5,21.048 22.5,21.048 C 21.75,21.048 21,21.048 21,21.048 C 20.25,21.048 20.25,20.298 20.25,20.298 C 20.25,19.548 20.25,18.798 20.25,18.798 C 21,18.048 21.75,17.298 21.75,17.298 L 22.5,17.298 L 21.75,16.548 C 21,15.798 19.5,16.548 19.5,16.548 C 19.5,16.548 19.5,16.548 19.5,16.548 C 18,17.298 17.25,19.548 17.25,19.548 C 16.5,21.048 14.25,30.048 14.25,30.048 C 14.25,30.798 14.25,30.798 14.25,30.798 C 14.25,32.298 14.25,33.048 14.25,33.048 C 14.25,35.298 16.5,35.298 16.5,35.298 C 17.25,35.298 17.25,34.548 17.25,34.548 C 19.5,33.798 21,30.798 21,30.798 C 21.75,30.048 21.75,29.298 21.75,29.298 C 21.75,28.548 22.5,28.548 22.5,28.548 C 22.5,28.548 22.5,28.548 22.5,28.548 C 23.25,28.548 23.25,28.548 23.25,28.548 C 24,29.298 23.25,30.048 23.25,30.048 C 22.5,32.298 21,34.548 21,34.548 C 19.5,36.048 17.25,36.798 17.25,36.798 C 15.75,36.798 15,36.798 15,36.798 C 12.75,36.048 11.25,33.798 11.25,33.798 L 11.25,33.798 L 11.25,33.798 C 9.75,36.048 8.25,36.798 8.25,36.798 C 7.5,36.798 6.75,36.798 6.75,36.798 C 6,36.798 6,36.798 6,36.798 C 4.5,36.048 3.75,35.298 3.75,35.298 C 3,34.548 3,33.798 3,33.798 C 2.25,33.048 3,32.298 3,32.298 C 3,31.548 3.75,30.798 3.75,30.798 C 4.5,29.298 6,30.048 6,30.048 C 6.75,30.048 6.75,30.798 6.75,30.798 C 7.5,30.798 7.5,31.548 7.5,31.548 C 7.5,32.298 6.75,33.048 6.75,33.048 C 6.75,33.798 6,33.798 6,33.798 C 5.25,34.548 5.25,34.548 5.25,34.548 C 5.25,34.548 5.25,34.548 5.25,34.548 C 6,34.548 6,34.548 6,34.548 C 6.75,35.298 6.75,35.298 6.75,35.298 C 8.25,35.298 8.25,34.548 8.25,34.548 C 9.75,33.798 10.5,31.548 10.5,31.548 L 13.5,20.298 C 13.5,18.048 12.75,17.298 12.75,17.298 C 12,16.548 10.5,16.548 10.5,16.548 C 9,16.548 6.75,19.548 6.75,19.548 C 6,21.048 6,22.548 6,22.548 C 5.25,22.548 5.25,22.548 5.25,22.548 C 5.25,22.548 4.5,22.548 4.5,22.548 L 3.75,22.548 L 3.75,22.548 C 3.75,22.548 3.75,22.548 3.75,22.548 C 3.75,21.048 5.25,18.798 5.25,18.798 C 5.25,18.798 5.25,18.798 5.25,18.798 C 6,17.298 6.75,16.548 6.75,16.548 C 9,15.048 10.5,15.048 10.5,15.048 z"
           style="fill:#000000;fill-opacity:1;fill-rule:nonzero;stroke:none"
           id="path2442" /></g></g><g
       id="g2444"
       transform="matrix(1.2152778,0,0,1.2152778,198.19901,264.9914)"><g
         id="g2446"
         clip-path="url(#clipPath2448)"><path
           d="M 18,16.5 C 32.25,10.5 32.25,9.75 32.25,9.75 C 32.25,9.75 33,10.5 33,10.5 C 33.75,10.5 33,11.25 33,11.25 C 33,11.25 33,12 33,12 C 33,12 20.25,18 20.25,18 L 7.5,24 L 20.25,30 C 33,36 33,36 33,36 C 33.75,36.75 33,37.5 33,37.5 C 33,37.5 33,37.5 33,37.5 C 32.25,38.25 32.25,37.5 32.25,37.5 C 31.5,37.5 18,31.5 18,31.5 C 4.5,24.75 4.5,24.75 4.5,24.75 C 3.75,24.75 3.75,24 3.75,24 C 3.75,23.25 4.5,23.25 4.5,23.25 C 4.5,23.25 18,16.5 18,16.5 z"
           style="fill:#000000;fill-opacity:1;fill-rule:nonzero;stroke:none"
           id="path2452" /></g></g><g
       id="g2454"
       transform="matrix(1.2152778,0,0,1.2152778,260.69901,264.9914)"><g
         id="g2456"
         clip-path="url(#clipPath2458)"><path
           d="M 11.25,3.7980003 C 15,3.7980003 18,6.7980003 18,6.7980003 C 19.5,7.5480003 20.25,9.7980003 20.25,9.7980003 C 21.75,13.548 21.75,21.048 21.75,21.048 C 21.75,27.798 20.25,32.298 20.25,32.298 C 18.75,34.548 15.75,36.048 15.75,36.048 C 13.5,37.548 10.5,36.798 10.5,36.798 C 7.5,36.798 6,34.548 6,34.548 C 4.5,33.798 3.75,32.298 3.75,32.298 C 1.5,27.798 1.5,21.048 1.5,21.048 C 1.5,15.048 3,11.298 3,11.298 C 3.75,9.7980003 4.5,8.2980003 4.5,8.2980003 C 6.75,4.5480003 10.5,4.5480003 10.5,4.5480003 C 10.5,3.7980003 11.25,3.7980003 11.25,3.7980003 z M 12.75,6.0480003 C 12,5.2980003 11.25,5.2980003 11.25,5.2980003 C 9,6.0480003 7.5,8.2980003 7.5,8.2980003 C 7.5,9.0480003 6.75,9.0480003 6.75,9.0480003 C 6.75,10.548 6.75,12.798 6.75,12.798 C 6.75,14.298 6,18.798 6,18.798 C 6,29.298 7.5,31.548 7.5,31.548 C 7.5,32.298 7.5,33.048 7.5,33.048 C 9,35.298 12,35.298 12,35.298 C 12,35.298 12.75,35.298 12.75,35.298 C 15,35.298 16.5,33.048 16.5,33.048 C 17.25,30.798 17.25,23.298 17.25,23.298 C 17.25,21.798 17.25,18.798 17.25,18.798 C 17.25,14.298 17.25,12.798 17.25,12.798 C 17.25,10.548 16.5,9.0480003 16.5,9.0480003 C 15.75,6.7980003 13.5,6.0480003 13.5,6.0480003 C 13.5,6.0480003 12.75,6.0480003 12.75,6.0480003 z"
           style="fill:#000000;fill-opacity:1;fill-rule:nonzero;stroke:none"
           id="path2462" /></g></g><g
       id="g2464"
       transform="matrix(1.2152778,0,0,1.2152778,310.69901,264.9914)"><g
         id="g2466"
         clip-path="url(#clipPath2468)"><path
           d="M 7.5,6.0480003 L 7.5,5.2980003 L 9,5.2980003 L 10.5,5.2980003 L 10.5,9.7980003 L 10.5,15.048 L 14.25,15.048 L 17.25,15.048 L 17.25,15.798 L 17.25,17.298 L 14.25,17.298 L 10.5,17.298 L 10.5,24.798 C 10.5,31.548 10.5,32.298 10.5,32.298 L 11.25,32.298 C 11.25,33.798 12,33.798 12,33.798 C 12.75,33.798 12.75,33.798 12.75,33.798 C 13.5,33.798 13.5,33.798 13.5,33.798 C 15,33.048 15,31.548 15,31.548 C 15.75,30.798 15.75,29.298 15.75,29.298 L 15.75,27.798 L 17.25,27.798 L 18,27.798 L 18,29.298 L 18,31.548 L 18,31.548 C 17.25,34.548 15,36.048 15,36.048 C 14.25,36.048 14.25,36.048 14.25,36.048 C 13.5,36.048 12,36.048 12,36.048 C 10.5,36.048 9,36.048 9,36.048 C 6,35.298 5.25,32.298 5.25,32.298 C 4.5,31.548 4.5,27.048 4.5,27.048 C 4.5,26.298 4.5,24.048 4.5,24.048 L 4.5,17.298 L 3,17.298 L 0.75,17.298 L 0.75,16.548 L 0.75,15.048 L 1.5,15.048 C 2.25,15.048 3,15.048 3,15.048 C 6,13.548 7.5,9.7980003 7.5,9.7980003 C 7.5,8.2980003 7.5,6.0480003 7.5,6.0480003 z M 27.456299,3.0480003 C 31.956299,3.0480003 31.956299,3.0480003 31.956299,3.0480003 L 32.706299,3.0480003 L 32.706299,10.548 L 32.706299,18.798 L 32.706299,18.048 C 34.206299,15.798 37.956299,15.048 37.956299,15.048 C 38.706299,14.298 40.206299,14.298 40.206299,14.298 C 42.456299,14.298 43.956299,15.048 43.956299,15.048 C 45.456299,15.048 46.956299,16.548 46.956299,16.548 C 47.706299,17.298 47.706299,19.548 47.706299,19.548 C 47.706299,20.298 47.706299,26.298 47.706299,26.298 L 47.706299,33.048 L 49.956299,33.048 L 51.456299,33.048 L 51.456299,34.548 L 51.456299,36.048 L 50.706299,36.048 L 47.706299,36.048 C 44.706299,36.048 42.456299,36.048 42.456299,36.048 L 38.706299,36.048 L 38.706299,36.048 L 38.706299,34.548 L 38.706299,33.048 L 40.206299,33.048 L 41.706299,33.048 L 41.706299,26.298 C 41.706299,19.548 41.706299,18.798 41.706299,18.798 C 41.706299,18.048 41.706299,18.048 41.706299,18.048 C 40.956299,16.548 38.706299,16.548 38.706299,16.548 C 36.456299,16.548 34.956299,18.798 34.956299,18.798 C 33.456299,19.548 32.706299,21.798 32.706299,21.798 C 32.706299,22.548 32.706299,24.798 32.706299,24.798 C 32.706299,23.298 32.706299,27.798 32.706299,27.798 L 32.706299,33.048 L 34.206299,33.048 L 35.706299,33.048 L 35.706299,34.548 L 35.706299,36.048 L 35.706299,36.048 L 32.706299,36.048 C 29.706299,36.048 26.706299,36.048 26.706299,36.048 L 23.706299,36.048 L 23.706299,36.048 L 23.706299,34.548 L 23.706299,33.048 L 25.206299,33.048 L 26.706299,33.048 L 26.706299,20.298 C 26.706299,6.7980003 26.706299,6.7980003 26.706299,6.7980003 C 26.706299,6.0480003 25.956299,6.0480003 25.956299,6.0480003 C 25.206299,6.0480003 23.706299,6.0480003 23.706299,6.0480003 L 23.706299,6.0480003 L 23.706299,4.5480003 L 23.706299,3.0480003 L 23.706299,3.0480003 L 27.456299,3.0480003 z M 64.128662,14.298 L 67.878662,14.298 C 70.878662,15.048 73.128662,16.548 73.128662,16.548 C 75.378662,19.548 76.128662,23.298 76.128662,23.298 C 76.128662,24.798 75.378662,25.548 75.378662,25.548 C 75.378662,25.548 67.878662,25.548 67.878662,25.548 L 60.378662,25.548 L 60.378662,26.298 C 60.378662,27.048 60.378662,27.048 60.378662,27.048 C 60.378662,30.798 61.878662,32.298 61.878662,32.298 C 64.128662,33.798 67.128662,33.798 67.128662,33.798 C 70.128662,33.798 72.378662,31.548 72.378662,31.548 C 72.378662,31.548 73.128662,30.048 73.128662,30.048 C 73.128662,29.298 73.878662,29.298 73.878662,29.298 C 73.878662,29.298 74.628662,29.298 74.628662,29.298 C 75.378662,29.298 75.378662,30.048 75.378662,30.048 C 76.128662,30.798 75.378662,30.798 75.378662,30.798 C 75.378662,32.298 73.878662,33.798 73.878662,33.798 C 73.128662,34.548 71.628662,35.298 71.628662,35.298 C 70.128662,36.048 68.628662,36.048 68.628662,36.048 C 65.628662,36.798 63.378662,36.048 63.378662,36.048 C 55.878662,34.548 54.378662,28.548 54.378662,28.548 C 53.628662,27.798 53.628662,27.048 53.628662,27.048 C 53.628662,25.548 53.628662,24.048 53.628662,24.048 C 53.628662,23.298 53.628662,23.298 53.628662,23.298 C 54.378662,20.298 55.878662,18.048 55.878662,18.048 C 56.628662,17.298 58.128662,16.548 58.128662,16.548 C 60.378662,14.298 64.128662,14.298 64.128662,14.298 z M 66.378662,16.548 C 65.628662,16.548 64.878662,16.548 64.878662,16.548 C 64.878662,16.548 64.878662,16.548 64.878662,16.548 C 63.378662,16.548 63.378662,17.298 63.378662,17.298 C 61.878662,18.048 61.128662,18.798 61.128662,18.798 C 60.378662,20.298 60.378662,23.298 60.378662,23.298 L 60.378662,23.298 L 65.628662,23.298 L 70.878662,23.298 L 70.878662,23.298 C 70.878662,21.048 70.128662,19.548 70.128662,19.548 C 68.628662,17.298 66.378662,16.548 66.378662,16.548 z M 83.424316,14.298 C 87.924316,14.298 87.924316,14.298 87.924316,14.298 L 87.924316,14.298 L 87.924316,16.548 L 87.924316,18.798 L 88.674316,18.798 C 90.174316,15.798 93.924316,15.048 93.924316,15.048 C 94.674316,14.298 96.174316,14.298 96.174316,14.298 C 98.424316,14.298 99.924316,15.048 99.924316,15.048 C 101.42432,15.048 102.92432,16.548 102.92432,16.548 C 103.67432,17.298 103.67432,19.548 103.67432,19.548 C 103.67432,20.298 103.67432,26.298 103.67432,26.298 L 103.67432,33.048 L 105.92432,33.048 L 107.42432,33.048 L 107.42432,34.548 L 107.42432,36.048 L 106.67432,36.048 L 103.67432,36.048 C 100.67432,36.048 98.424316,36.048 98.424316,36.048 L 94.674316,36.048 L 94.674316,36.048 L 94.674316,34.548 L 94.674316,33.048 L 96.174316,33.048 L 97.674316,33.048 L 97.674316,26.298 C 97.674316,19.548 97.674316,18.798 97.674316,18.798 C 97.674316,18.048 97.674316,18.048 97.674316,18.048 C 96.924316,16.548 94.674316,16.548 94.674316,16.548 C 92.424316,16.548 90.924316,18.798 90.924316,18.798 C 89.424316,19.548 88.674316,21.798 88.674316,21.798 C 88.674316,22.548 88.674316,24.798 88.674316,24.798 C 88.674316,23.298 88.674316,27.798 88.674316,27.798 L 88.674316,33.048 L 90.174316,33.048 L 91.674316,33.048 L 91.674316,34.548 L 91.674316,36.048 L 91.674316,36.048 L 88.674316,36.048 C 85.674316,36.048 82.674316,36.048 82.674316,36.048 L 79.674316,36.048 L 79.674316,36.048 L 79.674316,34.548 L 79.674316,33.048 L 81.174316,33.048 L 82.674316,33.048 L 82.674316,26.298 C 82.674316,18.798 82.674316,18.048 82.674316,18.048 C 82.674316,18.048 81.924316,18.048 81.924316,18.048 C 81.174316,17.298 79.674316,17.298 79.674316,17.298 L 79.674316,17.298 L 79.674316,16.548 L 79.674316,15.048 L 79.674316,15.048 L 83.424316,14.298 z"
           style="fill:#000000;fill-opacity:1;fill-rule:nonzero;stroke:none"
           id="path2472" /></g></g><g
       id="g2474"
       transform="matrix(1.2152778,0,0,1.2152778,460.69902,264.9914)"><g
         id="g2476"
         clip-path="url(#clipPath2478)"><path
           d="M 4.5,24.93 L 4.5,24.93 L 18.75,24.93 L 32.25,24.93 L 33,24.93 C 33,24.93 33,24.93 33,24.93 C 33,25.68 33,25.68 33,25.68 C 33,25.68 33,26.43 33,26.43 C 33,26.43 33,26.43 33,26.43 L 32.25,26.43 L 18.75,26.43 L 4.5,26.43 L 4.5,26.43 C 4.5,26.43 4.5,26.43 4.5,26.43 C 3.75,25.68 3.75,25.68 3.75,25.68 C 3.75,25.68 4.5,24.93 4.5,24.93 C 4.5,24.93 4.5,24.93 4.5,24.93 z"
           style="fill:#000000;fill-opacity:1;fill-rule:nonzero;stroke:none"
           id="path2482" /></g></g><g
       id="g2484"
       transform="matrix(1.2152778,0,0,1.2152778,506.5323,264.9914)"><g
         id="g2486"
         clip-path="url(#clipPath2488)"><path
           d="M 10.5,15.048 C 11.25,15.048 12.75,15.048 12.75,15.048 C 13.5,15.048 14.25,15.798 14.25,15.798 C 15,16.548 15.75,17.298 15.75,17.298 L 15.75,17.298 L 16.5,17.298 C 17.25,16.548 18,15.798 18,15.798 C 18.75,15.048 19.5,15.048 19.5,15.048 C 21,14.298 22.5,15.048 22.5,15.048 C 23.25,15.798 24,15.798 24,15.798 C 24,16.548 24.75,16.548 24.75,16.548 C 24.75,18.048 24.75,19.548 24.75,19.548 C 24,21.048 22.5,21.048 22.5,21.048 C 21.75,21.048 21,21.048 21,21.048 C 20.25,21.048 20.25,20.298 20.25,20.298 C 20.25,19.548 20.25,18.798 20.25,18.798 C 21,18.048 21.75,17.298 21.75,17.298 L 22.5,17.298 L 21.75,16.548 C 21,15.798 19.5,16.548 19.5,16.548 C 19.5,16.548 19.5,16.548 19.5,16.548 C 18,17.298 17.25,19.548 17.25,19.548 C 16.5,21.048 14.25,30.048 14.25,30.048 C 14.25,30.798 14.25,30.798 14.25,30.798 C 14.25,32.298 14.25,33.048 14.25,33.048 C 14.25,35.298 16.5,35.298 16.5,35.298 C 17.25,35.298 17.25,34.548 17.25,34.548 C 19.5,33.798 21,30.798 21,30.798 C 21.75,30.048 21.75,29.298 21.75,29.298 C 21.75,28.548 22.5,28.548 22.5,28.548 C 22.5,28.548 22.5,28.548 22.5,28.548 C 23.25,28.548 23.25,28.548 23.25,28.548 C 24,29.298 23.25,30.048 23.25,30.048 C 22.5,32.298 21,34.548 21,34.548 C 19.5,36.048 17.25,36.798 17.25,36.798 C 15.75,36.798 15,36.798 15,36.798 C 12.75,36.048 11.25,33.798 11.25,33.798 L 11.25,33.798 L 11.25,33.798 C 9.75,36.048 8.25,36.798 8.25,36.798 C 7.5,36.798 6.75,36.798 6.75,36.798 C 6,36.798 6,36.798 6,36.798 C 4.5,36.048 3.75,35.298 3.75,35.298 C 3,34.548 3,33.798 3,33.798 C 2.25,33.048 3,32.298 3,32.298 C 3,31.548 3.75,30.798 3.75,30.798 C 4.5,29.298 6,30.048 6,30.048 C 6.75,30.048 6.75,30.798 6.75,30.798 C 7.5,30.798 7.5,31.548 7.5,31.548 C 7.5,32.298 6.75,33.048 6.75,33.048 C 6.75,33.798 6,33.798 6,33.798 C 5.25,34.548 5.25,34.548 5.25,34.548 C 5.25,34.548 5.25,34.548 5.25,34.548 C 6,34.548 6,34.548 6,34.548 C 6.75,35.298 6.75,35.298 6.75,35.298 C 8.25,35.298 8.25,34.548 8.25,34.548 C 9.75,33.798 10.5,31.548 10.5,31.548 L 13.5,20.298 C 13.5,18.048 12.75,17.298 12.75,17.298 C 12,16.548 10.5,16.548 10.5,16.548 C 9,16.548 6.75,19.548 6.75,19.548 C 6,21.048 6,22.548 6,22.548 C 5.25,22.548 5.25,22.548 5.25,22.548 C 5.25,22.548 4.5,22.548 4.5,22.548 L 3.75,22.548 L 3.75,22.548 C 3.75,22.548 3.75,22.548 3.75,22.548 C 3.75,21.048 5.25,18.798 5.25,18.798 C 5.25,18.798 5.25,18.798 5.25,18.798 C 6,17.298 6.75,16.548 6.75,16.548 C 9,15.048 10.5,15.048 10.5,15.048 z"
           style="fill:#000000;fill-opacity:1;fill-rule:nonzero;stroke:none"
           id="path2492" /></g></g><g
       id="g2494"
       transform="matrix(1.2152778,0,0,1.2152778,552.3657,264.9914)"><g
         id="g2496"
         clip-path="url(#clipPath2498)"><path
           d="M 12,14.298 L 15.75,14.298 C 18.75,15.048 21,16.548 21,16.548 C 23.25,19.548 24,23.298 24,23.298 C 24,24.798 23.25,25.548 23.25,25.548 C 23.25,25.548 15.75,25.548 15.75,25.548 L 8.25,25.548 L 8.25,26.298 C 8.25,27.048 8.25,27.048 8.25,27.048 C 8.25,30.798 9.75,32.298 9.75,32.298 C 12,33.798 15,33.798 15,33.798 C 18,33.798 20.25,31.548 20.25,31.548 C 20.25,31.548 21,30.048 21,30.048 C 21,29.298 21.75,29.298 21.75,29.298 C 21.75,29.298 22.5,29.298 22.5,29.298 C 23.25,29.298 23.25,30.048 23.25,30.048 C 24,30.798 23.25,30.798 23.25,30.798 C 23.25,32.298 21.75,33.798 21.75,33.798 C 21,34.548 19.5,35.298 19.5,35.298 C 18,36.048 16.5,36.048 16.5,36.048 C 13.5,36.798 11.25,36.048 11.25,36.048 C 3.75,34.548 2.25,28.548 2.25,28.548 C 1.5,27.798 1.5,27.048 1.5,27.048 C 1.5,25.548 1.5,24.048 1.5,24.048 C 1.5,23.298 1.5,23.298 1.5,23.298 C 2.25,20.298 3.75,18.048 3.75,18.048 C 4.5,17.298 6,16.548 6,16.548 C 8.25,14.298 12,14.298 12,14.298 z M 14.25,16.548 C 13.5,16.548 12.75,16.548 12.75,16.548 C 12.75,16.548 12.75,16.548 12.75,16.548 C 11.25,16.548 11.25,17.298 11.25,17.298 C 9.75,18.048 9,18.798 9,18.798 C 8.25,20.298 8.25,23.298 8.25,23.298 L 8.25,23.298 L 13.5,23.298 L 18.75,23.298 L 18.75,23.298 C 18.75,21.048 18,19.548 18,19.548 C 16.5,17.298 14.25,16.548 14.25,16.548 z M 32.045654,3.0480003 C 35.795654,3.0480003 35.795654,3.0480003 35.795654,3.0480003 L 36.545654,3.0480003 L 36.545654,18.048 L 36.545654,33.048 L 38.045654,33.048 L 39.545654,33.048 L 39.545654,34.548 L 39.545654,36.048 L 38.795654,36.048 L 35.795654,36.048 C 33.545654,36.048 30.545654,36.048 30.545654,36.048 C 27.545654,36.048 27.545654,36.048 27.545654,36.048 L 27.545654,36.048 L 27.545654,34.548 L 27.545654,33.048 L 29.045654,33.048 L 30.545654,33.048 L 30.545654,20.298 C 30.545654,6.7980003 30.545654,6.7980003 30.545654,6.7980003 C 30.545654,6.0480003 29.795654,6.0480003 29.795654,6.0480003 C 29.045654,6.0480003 28.295654,6.0480003 28.295654,6.0480003 L 27.545654,6.0480003 L 27.545654,4.5480003 L 27.545654,3.0480003 L 27.545654,3.0480003 C 27.545654,3.0480003 32.045654,3.0480003 32.045654,3.0480003 z M 49.607666,14.298 C 51.857666,14.298 53.357666,14.298 53.357666,14.298 C 54.857666,15.048 55.607666,15.048 55.607666,15.048 C 55.607666,15.048 55.607666,15.048 55.607666,15.048 C 56.357666,15.048 57.107666,15.048 57.107666,15.048 C 57.857666,14.298 57.857666,14.298 57.857666,14.298 C 58.607666,14.298 58.607666,14.298 58.607666,14.298 C 59.357666,14.298 59.357666,15.048 59.357666,15.048 C 59.357666,15.798 59.357666,17.298 59.357666,17.298 C 59.357666,20.298 58.607666,20.298 58.607666,20.298 C 58.607666,21.048 57.857666,21.048 57.857666,21.048 C 57.107666,21.048 57.107666,20.298 57.107666,20.298 C 56.357666,20.298 56.357666,19.548 56.357666,19.548 C 56.357666,18.798 55.607666,17.298 55.607666,17.298 C 54.857666,17.298 54.107666,16.548 54.107666,16.548 C 52.607666,16.548 51.107666,16.548 51.107666,16.548 C 49.607666,16.548 49.607666,16.548 49.607666,16.548 C 47.357666,16.548 46.607666,18.048 46.607666,18.048 C 45.857666,19.548 48.107666,21.048 48.107666,21.048 C 48.857666,21.048 51.107666,21.798 51.107666,21.798 L 51.857666,21.798 C 53.357666,21.798 54.107666,22.548 54.107666,22.548 C 56.357666,23.298 57.857666,24.048 57.857666,24.048 C 60.107666,25.548 60.107666,27.798 60.107666,27.798 C 60.857666,30.048 59.357666,33.048 59.357666,33.048 C 59.357666,33.798 58.607666,34.548 58.607666,34.548 C 56.357666,36.048 54.107666,36.048 54.107666,36.048 C 51.857666,36.798 50.357666,36.048 50.357666,36.048 C 49.607666,36.048 49.607666,36.048 49.607666,36.048 C 47.357666,36.048 46.607666,35.298 46.607666,35.298 L 45.857666,35.298 L 45.107666,35.298 L 43.607666,36.048 L 43.607666,36.048 C 42.857666,36.048 42.857666,36.048 42.857666,36.048 C 42.107666,36.048 42.107666,35.298 42.107666,35.298 C 42.107666,34.548 42.107666,32.298 42.107666,32.298 C 42.107666,29.298 42.857666,28.548 42.857666,28.548 C 42.857666,28.548 43.607666,28.548 43.607666,28.548 C 44.357666,28.548 45.107666,28.548 45.107666,28.548 C 45.107666,28.548 45.107666,30.048 45.107666,30.048 C 46.607666,33.048 50.357666,33.798 50.357666,33.798 C 51.107666,34.548 52.607666,33.798 52.607666,33.798 C 53.357666,33.798 53.357666,33.798 53.357666,33.798 C 54.857666,33.798 55.607666,33.048 55.607666,33.048 C 57.107666,31.548 56.357666,30.798 56.357666,30.798 C 56.357666,29.298 54.107666,28.548 54.107666,28.548 C 54.107666,27.798 51.107666,27.048 51.107666,27.048 C 48.107666,27.048 47.357666,26.298 47.357666,26.298 C 43.607666,24.798 42.857666,22.548 42.857666,22.548 C 42.107666,21.798 42.107666,20.298 42.107666,20.298 C 42.857666,18.798 43.607666,17.298 43.607666,17.298 C 45.107666,15.048 49.607666,14.298 49.607666,14.298 z M 74.399414,14.298 L 78.149414,14.298 C 81.149414,15.048 83.399414,16.548 83.399414,16.548 C 85.649414,19.548 86.399414,23.298 86.399414,23.298 C 86.399414,24.798 85.649414,25.548 85.649414,25.548 C 85.649414,25.548 78.149414,25.548 78.149414,25.548 L 70.649414,25.548 L 70.649414,26.298 C 70.649414,27.048 70.649414,27.048 70.649414,27.048 C 70.649414,30.798 72.149414,32.298 72.149414,32.298 C 74.399414,33.798 77.399414,33.798 77.399414,33.798 C 80.399414,33.798 82.649414,31.548 82.649414,31.548 C 82.649414,31.548 83.399414,30.048 83.399414,30.048 C 83.399414,29.298 84.149414,29.298 84.149414,29.298 C 84.149414,29.298 84.899414,29.298 84.899414,29.298 C 85.649414,29.298 85.649414,30.048 85.649414,30.048 C 86.399414,30.798 85.649414,30.798 85.649414,30.798 C 85.649414,32.298 84.149414,33.798 84.149414,33.798 C 83.399414,34.548 81.899414,35.298 81.899414,35.298 C 80.399414,36.048 78.899414,36.048 78.899414,36.048 C 75.899414,36.798 73.649414,36.048 73.649414,36.048 C 66.149414,34.548 64.649414,28.548 64.649414,28.548 C 63.899418,27.798 63.899418,27.048 63.899418,27.048 C 63.899418,25.548 63.899418,24.048 63.899418,24.048 C 63.899418,23.298 63.899418,23.298 63.899418,23.298 C 64.649414,20.298 66.149414,18.048 66.149414,18.048 C 66.899414,17.298 68.399414,16.548 68.399414,16.548 C 70.649414,14.298 74.399414,14.298 74.399414,14.298 z M 76.649414,16.548 C 75.899414,16.548 75.149414,16.548 75.149414,16.548 C 75.149414,16.548 75.149414,16.548 75.149414,16.548 C 73.649414,16.548 73.649414,17.298 73.649414,17.298 C 72.149414,18.048 71.399414,18.798 71.399414,18.798 C 70.649414,20.298 70.649414,23.298 70.649414,23.298 L 70.649414,23.298 L 75.899414,23.298 L 81.149414,23.298 L 81.149414,23.298 C 81.149414,21.048 80.399414,19.548 80.399414,19.548 C 78.899414,17.298 76.649414,16.548 76.649414,16.548 z"
           style="fill:#000000;fill-opacity:1;fill-rule:nonzero;stroke:none"
           id="path2502" /></g></g><g
       id="g2504"
       transform="matrix(1.2152778,0,0,1.2152778,673.199,264.9914)"><g
         id="g2506"
         clip-path="url(#clipPath2508)"><path
           d="M 10.5,15.048 C 11.25,15.048 12.75,15.048 12.75,15.048 C 13.5,15.048 14.25,15.798 14.25,15.798 C 15,16.548 15.75,17.298 15.75,17.298 L 15.75,17.298 L 16.5,17.298 C 17.25,16.548 18,15.798 18,15.798 C 18.75,15.048 19.5,15.048 19.5,15.048 C 21,14.298 22.5,15.048 22.5,15.048 C 23.25,15.798 24,15.798 24,15.798 C 24,16.548 24.75,16.548 24.75,16.548 C 24.75,18.048 24.75,19.548 24.75,19.548 C 24,21.048 22.5,21.048 22.5,21.048 C 21.75,21.048 21,21.048 21,21.048 C 20.25,21.048 20.25,20.298 20.25,20.298 C 20.25,19.548 20.25,18.798 20.25,18.798 C 21,18.048 21.75,17.298 21.75,17.298 L 22.5,17.298 L 21.75,16.548 C 21,15.798 19.5,16.548 19.5,16.548 C 19.5,16.548 19.5,16.548 19.5,16.548 C 18,17.298 17.25,19.548 17.25,19.548 C 16.5,21.048 14.25,30.048 14.25,30.048 C 14.25,30.798 14.25,30.798 14.25,30.798 C 14.25,32.298 14.25,33.048 14.25,33.048 C 14.25,35.298 16.5,35.298 16.5,35.298 C 17.25,35.298 17.25,34.548 17.25,34.548 C 19.5,33.798 21,30.798 21,30.798 C 21.75,30.048 21.75,29.298 21.75,29.298 C 21.75,28.548 22.5,28.548 22.5,28.548 C 22.5,28.548 22.5,28.548 22.5,28.548 C 23.25,28.548 23.25,28.548 23.25,28.548 C 24,29.298 23.25,30.048 23.25,30.048 C 22.5,32.298 21,34.548 21,34.548 C 19.5,36.048 17.25,36.798 17.25,36.798 C 15.75,36.798 15,36.798 15,36.798 C 12.75,36.048 11.25,33.798 11.25,33.798 L 11.25,33.798 L 11.25,33.798 C 9.75,36.048 8.25,36.798 8.25,36.798 C 7.5,36.798 6.75,36.798 6.75,36.798 C 6,36.798 6,36.798 6,36.798 C 4.5,36.048 3.75,35.298 3.75,35.298 C 3,34.548 3,33.798 3,33.798 C 2.25,33.048 3,32.298 3,32.298 C 3,31.548 3.75,30.798 3.75,30.798 C 4.5,29.298 6,30.048 6,30.048 C 6.75,30.048 6.75,30.798 6.75,30.798 C 7.5,30.798 7.5,31.548 7.5,31.548 C 7.5,32.298 6.75,33.048 6.75,33.048 C 6.75,33.798 6,33.798 6,33.798 C 5.25,34.548 5.25,34.548 5.25,34.548 C 5.25,34.548 5.25,34.548 5.25,34.548 C 6,34.548 6,34.548 6,34.548 C 6.75,35.298 6.75,35.298 6.75,35.298 C 8.25,35.298 8.25,34.548 8.25,34.548 C 9.75,33.798 10.5,31.548 10.5,31.548 L 13.5,20.298 C 13.5,18.048 12.75,17.298 12.75,17.298 C 12,16.548 10.5,16.548 10.5,16.548 C 9,16.548 6.75,19.548 6.75,19.548 C 6,21.048 6,22.548 6,22.548 C 5.25,22.548 5.25,22.548 5.25,22.548 C 5.25,22.548 4.5,22.548 4.5,22.548 L 3.75,22.548 L 3.75,22.548 C 3.75,22.548 3.75,22.548 3.75,22.548 C 3.75,21.048 5.25,18.798 5.25,18.798 C 5.25,18.798 5.25,18.798 5.25,18.798 C 6,17.298 6.75,16.548 6.75,16.548 C 9,15.048 10.5,15.048 10.5,15.048 z"
           style="fill:#000000;fill-opacity:1;fill-rule:nonzero;stroke:none"
           id="path2512" /></g></g></g><g
     inkscape:groupmode="layer"
     id="layer1"
     inkscape:label="annotations"><rect
       style="opacity:0.5;fill:none;fill-opacity:1;stroke:#000000;stroke-width:0.5;stroke-miterlimit:4;stroke-dasharray:0.5, 1;stroke-dashoffset:0;stroke-opacity:1"
       id="rect2535"
       width="32.241795"
       height="13.602029"
       x="34.382244"
       y="58.585617" /><rect
       y="58.585617"
       x="101.32806"
       height="14.157605"
       width="21.963793"
       id="rect3307"
       style="opacity:0.5;fill:none;fill-opacity:1;stroke:#000000;stroke-width:0.5;stroke-miterlimit:4;stroke-dasharray:0.5, 1;stroke-dashoffset:0;stroke-opacity:1" /><rect
       style="opacity:0.5;fill:none;fill-opacity:1;stroke:#000000;stroke-width:0.5;stroke-miterlimit:4;stroke-dasharray:0.5, 1;stroke-dashoffset:0;stroke-opacity:1"
       id="rect3309"
       width="10.2969"
       height="13.324249"
       x="150.21796"
       y="58.585617" /><rect
       y="54.974426"
       x="18.826366"
       height="19.991062"
       width="145.57747"
       id="rect3311"
       style="opacity:1;fill:none;fill-opacity:1;stroke:#5555ff;stroke-width:0.5;stroke-miterlimit:4;stroke-dasharray:0.5, 1;stroke-dashoffset:0;stroke-opacity:1" /><rect
       y="61.363449"
       x="114.10609"
       height="9.7130566"
       width="7.5190763"
       id="rect3313"
       style="opacity:1;fill:none;fill-opacity:1;stroke:#ff5555;stroke-width:0.5;stroke-miterlimit:4;stroke-dasharray:0.5, 1;stroke-dashoffset:0;stroke-opacity:1" /><text
       xml:space="preserve"
       style="font-size:8px;font-style:italic;font-variant:normal;font-weight:normal;font-stretch:normal;text-align:center;line-height:125%;writing-mode:lr-tb;text-anchor:middle;fill:#5c55ff;fill-opacity:1;stroke:none;stroke-width:1px;stroke-linecap:butt;stroke-linejoin:miter;stroke-opacity:1;font-family:Times New Roman;-inkscape-font-specification:Times New Roman Italic"
       x="67.970459"
       y="96.31282"
       id="text3315"
       sodipodi:linespacing="125%"><tspan
         sodipodi:role="line"
         id="tspan3317"
         x="67.970459"
         y="96.31282">parent</tspan></text>
<text
       sodipodi:linespacing="125%"
       id="text3319"
       y="21.033472"
       x="112.99457"
       style="font-size:8px;font-style:italic;font-variant:normal;font-weight:normal;font-stretch:normal;text-align:center;line-height:125%;writing-mode:lr-tb;text-anchor:middle;fill:#515151;fill-opacity:1;stroke:none;stroke-width:1px;stroke-linecap:butt;stroke-linejoin:miter;stroke-opacity:1;font-family:Times New Roman;-inkscape-font-specification:Times New Roman Italic"
       xml:space="preserve"><tspan
         y="21.033472"
         x="112.99457"
         id="tspan3321"
         sodipodi:role="line">selected</tspan></text>
<text
       xml:space="preserve"
       style="font-size:8px;font-style:italic;font-variant:normal;font-weight:normal;font-stretch:normal;text-align:center;line-height:125%;writing-mode:lr-tb;text-anchor:middle;fill:#515151;fill-opacity:1;stroke:none;stroke-width:1px;stroke-linecap:butt;stroke-linejoin:miter;stroke-opacity:1;font-family:Times New Roman;-inkscape-font-specification:Times New Roman Italic"
       x="159.38443"
       y="34.644867"
       id="text3323"
       sodipodi:linespacing="125%"><tspan
         sodipodi:role="line"
         id="tspan3325"
         x="159.38443"
         y="34.644867">next sibling</tspan></text>
<text
       sodipodi:linespacing="125%"
       id="text3327"
       y="34.644867"
       x="50.215496"
       style="font-size:8px;font-style:italic;font-variant:normal;font-weight:normal;font-stretch:normal;text-align:center;line-height:125%;writing-mode:lr-tb;text-anchor:middle;fill:#515151;fill-opacity:1;stroke:none;stroke-width:1px;stroke-linecap:butt;stroke-linejoin:miter;stroke-opacity:1;font-family:Times New Roman;-inkscape-font-specification:Times New Roman Italic"
       xml:space="preserve"><tspan
         y="34.644867"
         x="50.215496"
         id="tspan3329"
         sodipodi:role="line">previous sibling</tspan></text>
<text
       sodipodi:linespacing="125%"
       id="text3331"
       y="96.035034"
       x="119.66137"
       style="font-size:8px;font-style:italic;font-variant:normal;font-weight:normal;font-stretch:normal;text-align:center;line-height:125%;writing-mode:lr-tb;text-anchor:middle;fill:#ff5555;fill-opacity:1;stroke:none;stroke-width:1px;stroke-linecap:butt;stroke-linejoin:miter;stroke-opacity:1;font-family:Times New Roman;-inkscape-font-specification:Times New Roman Italic"
       xml:space="preserve"><tspan
         y="96.035034"
         x="119.66137"
         id="tspan3333"
         sodipodi:role="line">child</tspan></text>
<path
       style="opacity:0.5970149;fill:none;fill-opacity:1;fill-rule:evenodd;stroke:#000000;stroke-width:1px;stroke-linecap:butt;stroke-linejoin:miter;marker-end:url(#Arrow1Mend);stroke-opacity:1"
       d="M 49.937715,36.589351 L 52.159975,56.589761"
       id="path3335"
       sodipodi:nodetypes="cc" /><path
       sodipodi:nodetypes="cc"
       id="path4115"
       d="M 113.27236,24.089091 L 113.55014,56.867541"
       style="opacity:0.5970149;fill:none;fill-opacity:1;fill-rule:evenodd;stroke:#000000;stroke-width:1px;stroke-linecap:butt;stroke-linejoin:miter;marker-end:url(#Arrow1Mend);stroke-opacity:1" /><path
       style="opacity:0.5970149;fill:none;fill-opacity:1;fill-rule:evenodd;stroke:#000000;stroke-width:1px;stroke-linecap:butt;stroke-linejoin:miter;marker-end:url(#Arrow1Mend);stroke-opacity:1"
       d="M 159.10664,37.144921 L 155.49545,56.867541"
       id="path4117"
       sodipodi:nodetypes="cc" /><path
       style="opacity:0.69402986;fill:none;fill-opacity:1;fill-rule:evenodd;stroke:#ff0909;stroke-width:1px;stroke-linecap:butt;stroke-linejoin:miter;marker-end:url(#Arrow1Mend);stroke-opacity:1"
       d="M 119.66138,89.090441 L 118.27246,72.145641"
       id="path4119"
       sodipodi:nodetypes="cc" /><path
       sodipodi:nodetypes="cc"
       id="path4121"
       d="M 68.243629,89.09739 L 71.264494,75.745243"
       style="opacity:0.70522383;fill:none;fill-opacity:1;fill-rule:evenodd;stroke:#0d03ff;stroke-width:1px;stroke-linecap:butt;stroke-linejoin:miter;marker-end:url(#Arrow1Mend);stroke-opacity:1" /></g></svg>