<?xml version="1.0" encoding="UTF-8" standalone="no"?>
<!-- Created with Inkscape (http://www.inkscape.org/) -->
<svg
   xmlns:dc="http://purl.org/dc/elements/1.1/"
   xmlns:cc="http://creativecommons.org/ns#"
   xmlns:rdf="http://www.w3.org/1999/02/22-rdf-syntax-ns#"
   xmlns:svg="http://www.w3.org/2000/svg"
   xmlns="http://www.w3.org/2000/svg"
   xmlns:sodipodi="http://sodipodi.sourceforge.net/DTD/sodipodi-0.dtd"
   xmlns:inkscape="http://www.inkscape.org/namespaces/inkscape"
   id="svg2403"
   sodipodi:version="0.32"
   inkscape:version="0.46"
   width="202.5"
   height="112.5"
   xml:space="preserve"
   sodipodi:docname="position-tree.svg"
   version="1.0"
   inkscape:output_extension="org.inkscape.output.svg.inkscape"><metadata
     id="metadata2408"><rdf:RDF><cc:Work
         rdf:about=""><dc:format>image/svg+xml</dc:format><dc:type
           rdf:resource="http://purl.org/dc/dcmitype/StillImage" /></cc:Work></rdf:RDF></metadata><defs
     id="defs2406"><marker
       inkscape:stockid="Arrow1Mend"
       orient="auto"
       refY="0"
       refX="0"
       id="Arrow1Mend"
       style="overflow:visible"><path
         id="path3349"
         d="M 0,0 L 5,-5 L -12.5,0 L 5,5 L 0,0 z"
         style="fill-rule:evenodd;stroke:#000000;stroke-width:1pt;marker-start:none"
         transform="matrix(-0.4,0,0,-0.4,-4,0)" /></marker><inkscape:perspective
       sodipodi:type="inkscape:persp3d"
       inkscape:vp_x="0 : 526.18109 : 1"
       inkscape:vp_y="0 : 1000 : 0"
       inkscape:vp_z="744.09448 : 526.18109 : 1"
       inkscape:persp3d-origin="372.04724 : 350.78739 : 1"
       id="perspective2410" /><clipPath
       clipPathUnits="userSpaceOnUse"
       id="clipPath2418"><path
         d="M 0,0 L 0,35.000002 L 164.00001,35.000002 L 164.00001,0 L 0,0 z"
         id="path2420" /></clipPath><clipPath
       clipPathUnits="userSpaceOnUse"
       id="clipPath2428"><path
         d="M -34.285715,-34.285715 L -34.285715,85.714295 L 528.00002,85.714295 L 528.00002,-34.285715 L -34.285715,-34.285715 z"
         id="path2430" /></clipPath><clipPath
       clipPathUnits="userSpaceOnUse"
       id="clipPath2438"><path
         d="M -82.285717,-34.285715 L -82.285717,85.714295 L 480.00002,85.714295 L 480.00002,-34.285715 L -82.285717,-34.285715 z"
         id="path2440" /></clipPath><clipPath
       clipPathUnits="userSpaceOnUse"
       id="clipPath2448"><path
         d="M -116.57143,-34.285715 L -116.57143,85.714295 L 445.7143,85.714295 L 445.7143,-34.285715 L -116.57143,-34.285715 z"
         id="path2450" /></clipPath><clipPath
       clipPathUnits="userSpaceOnUse"
       id="clipPath2458"><path
         d="M -168.00001,-34.285715 L -168.00001,85.714295 L 394.28575,85.714295 L 394.28575,-34.285715 L -168.00001,-34.285715 z"
         id="path2460" /></clipPath><clipPath
       clipPathUnits="userSpaceOnUse"
       id="clipPath2468"><path
         d="M -209.14286,-34.285715 L -209.14286,85.714295 L 353.1429,85.714295 L 353.1429,-34.285715 L -209.14286,-34.285715 z"
         id="path2470" /></clipPath><clipPath
       clipPathUnits="userSpaceOnUse"
       id="clipPath2478"><path
         d="M -332.57144,-34.285715 L -332.57144,85.714295 L 229.71432,85.714295 L 229.71432,-34.285715 L -332.57144,-34.285715 z"
         id="path2480" /></clipPath><clipPath
       clipPathUnits="userSpaceOnUse"
       id="clipPath2488"><path
         d="M -370.28573,-34.285715 L -370.28573,85.714295 L 192.00003,85.714295 L 192.00003,-34.285715 L -370.28573,-34.285715 z"
         id="path2490" /></clipPath><clipPath
       clipPathUnits="userSpaceOnUse"
       id="clipPath2498"><path
         d="M -408.00001,-34.285715 L -408.00001,85.714295 L 154.28575,85.714295 L 154.28575,-34.285715 L -408.00001,-34.285715 z"
         id="path2500" /></clipPath><clipPath
       clipPathUnits="userSpaceOnUse"
       id="clipPath2508"><path
         d="M -507.42859,-34.285715 L -507.42859,85.714295 L 54.857164,85.714295 L 54.857164,-34.285715 L -507.42859,-34.285715 z"
         id="path2510" /></clipPath></defs><sodipodi:namedview
     inkscape:window-height="842"
     inkscape:window-width="1227"
     inkscape:pageshadow="2"
     inkscape:pageopacity="0.0"
     guidetolerance="10.0"
     gridtolerance="10.0"
     objecttolerance="10.0"
     borderopacity="1.0"
     bordercolor="#666666"
     pagecolor="#ffffff"
     id="base"
     showgrid="false"
     inkscape:zoom="3.5703704"
     inkscape:cx="101.25"
     inkscape:cy="56.25"
     inkscape:window-x="0"
     inkscape:window-y="0"
     inkscape:current-layer="g2412"
     units="in" /><g
     id="g2412"
     inkscape:groupmode="layer"
     inkscape:label="position"
     transform="scale(0.225,0.2228571)"
     style="display:inline"><path
       style="display:inline;fill:none;fill-rule:evenodd;stroke:#000000;stroke-width:0.50000000000000000;stroke-linecap:butt;stroke-linejoin:miter;stroke-opacity:1;stroke-miterlimit:4;stroke-dasharray:none"
       d="M 50.041494,61.338174 L 50.041494,74.03527"
       id="path4189"
       sodipodi:nodetypes="cc"
       transform="scale(4.4444444,4.4871804)" /><path
       style="display:inline;fill:none;fill-rule:evenodd;stroke:#000000;stroke-width:0.50000000000000000;stroke-linecap:butt;stroke-linejoin:miter;stroke-opacity:1;stroke-miterlimit:4;stroke-dasharray:none"
       d="M 96.721992,36.317427 L 125.85062,46.400415"
       id="path4187"
       sodipodi:nodetypes="cc"
       transform="scale(4.4444444,4.4871804)" /><path
       style="display:inline;fill:none;fill-rule:evenodd;stroke:#000000;stroke-width:0.50000000000000000;stroke-linecap:butt;stroke-linejoin:miter;stroke-opacity:1;stroke-miterlimit:4;stroke-dasharray:none"
       d="M 90.746888,36.690871 L 90.746888,48.267635"
       id="path4183"
       sodipodi:nodetypes="cc"
       transform="scale(4.4444444,4.4871804)" /><path
       sodipodi:nodetypes="cc"
       id="path4185"
       d="M 85.892116,36.690871 L 52.375518,46.86722"
       style="display:inline;fill:none;fill-rule:evenodd;stroke:#000000;stroke-width:0.50000000000000000;stroke-linecap:butt;stroke-linejoin:miter;stroke-opacity:1;stroke-miterlimit:4;stroke-dasharray:none"
       transform="scale(4.4444444,4.4871804)" /><g
       id="g2424"
       transform="matrix(1.2152778,0,0,1.2152778,385.33594,95.744639)"><g
         id="g2426"
         clip-path="url(#clipPath2428)"><path
           d="M 6.75,3.0480003 C 7.5,2.2980003 8.25,3.0480003 8.25,3.0480003 C 10.5,3.0480003 11.25,5.2980003 11.25,5.2980003 C 11.25,5.2980003 11.25,6.4230003 11.25,6.4230003 C 11.25,7.5480003 11.25,8.2980003 11.25,8.2980003 C 10.5,9.7980003 8.25,10.548 8.25,10.548 C 7.5,10.548 6.75,10.548 6.75,10.548 C 4.5,9.7980003 3.75,7.5480003 3.75,7.5480003 C 3,6.7980003 3.75,5.2980003 3.75,5.2980003 C 3.75,4.5480003 4.5,3.7980003 4.5,3.7980003 C 6,3.0480003 6.75,3.0480003 6.75,3.0480003 z M 6.75,14.298 C 11.25,14.298 10.5,14.298 10.5,14.298 L 11.25,14.298 L 11.25,24.048 L 11.25,33.048 L 12.75,33.048 L 14.25,33.048 L 14.25,34.548 L 14.25,36.048 L 13.5,36.048 L 10.5,36.048 C 8.25,36.048 5.25,36.048 5.25,36.048 C 2.25,36.048 2.25,36.048 2.25,36.048 L 2.25,36.048 L 2.25,34.548 L 2.25,33.048 L 3.75,33.048 L 5.25,33.048 L 5.25,26.298 C 5.25,18.798 5.25,18.798 5.25,18.798 C 5.25,18.048 4.5,18.048 4.5,18.048 C 3.75,17.298 3,17.298 3,17.298 L 2.25,17.298 L 2.25,16.548 L 2.25,15.048 L 2.25,15.048 L 6.75,14.298 z M 30.312012,2.2980003 L 32.562012,2.2980003 C 34.812012,3.0480003 35.562012,3.7980003 35.562012,3.7980003 C 37.062012,5.2980003 36.312012,7.5480003 36.312012,7.5480003 C 36.312012,8.2980003 35.562012,9.0480003 35.562012,9.0480003 C 34.062012,10.548 32.562012,9.7980003 32.562012,9.7980003 C 31.812012,9.7980003 31.062012,9.0480003 31.062012,9.0480003 C 30.312012,7.5480003 30.312012,6.0480003 30.312012,6.0480003 C 30.312012,5.2980003 31.062012,4.5480003 31.062012,4.5480003 L 31.062012,4.5480003 L 30.312012,4.5480003 C 27.312012,4.5480003 26.562012,7.5480003 26.562012,7.5480003 C 25.812012,8.2980003 25.812012,12.048 25.812012,12.048 L 25.812012,15.048 L 28.812012,15.048 L 31.812012,15.048 L 31.812012,15.798 L 31.812012,17.298 L 28.812012,17.298 L 26.562012,17.298 L 26.562012,25.548 L 26.562012,33.048 L 28.062012,33.048 L 30.312012,33.048 L 30.312012,34.548 L 30.312012,36.048 L 30.312012,36.048 L 26.562012,36.048 C 23.562012,36.048 20.562012,36.048 20.562012,36.048 C 17.562012,36.048 17.562012,36.048 17.562012,36.048 L 17.562012,36.048 L 17.562012,34.548 L 17.562012,33.048 L 19.062012,33.048 L 20.562012,33.048 L 20.562012,25.548 L 20.562012,17.298 L 19.062012,17.298 L 17.562012,17.298 L 17.562012,15.798 L 17.562012,15.048 L 19.062012,15.048 L 20.562012,15.048 L 20.562012,12.048 C 20.562012,9.0480003 20.562012,8.2980003 20.562012,8.2980003 C 22.062012,4.5480003 26.562012,3.0480003 26.562012,3.0480003 C 28.062012,3.0480003 30.312012,2.2980003 30.312012,2.2980003 z"
           style="fill:#000000;fill-opacity:1;fill-rule:nonzero;stroke:none"
           id="path2432" /></g></g><g
       id="g2434"
       transform="matrix(1.2152778,0,0,1.2152778,345.74396,345.4255)"><g
         id="g2436"
         clip-path="url(#clipPath2438)"><path
           d="M 10.5,15.048 C 11.25,15.048 12.75,15.048 12.75,15.048 C 13.5,15.048 14.25,15.798 14.25,15.798 C 15,16.548 15.75,17.298 15.75,17.298 L 15.75,17.298 L 16.5,17.298 C 17.25,16.548 18,15.798 18,15.798 C 18.75,15.048 19.5,15.048 19.5,15.048 C 21,14.298 22.5,15.048 22.5,15.048 C 23.25,15.798 24,15.798 24,15.798 C 24,16.548 24.75,16.548 24.75,16.548 C 24.75,18.048 24.75,19.548 24.75,19.548 C 24,21.048 22.5,21.048 22.5,21.048 C 21.75,21.048 21,21.048 21,21.048 C 20.25,21.048 20.25,20.298 20.25,20.298 C 20.25,19.548 20.25,18.798 20.25,18.798 C 21,18.048 21.75,17.298 21.75,17.298 L 22.5,17.298 L 21.75,16.548 C 21,15.798 19.5,16.548 19.5,16.548 C 19.5,16.548 19.5,16.548 19.5,16.548 C 18,17.298 17.25,19.548 17.25,19.548 C 16.5,21.048 14.25,30.048 14.25,30.048 C 14.25,30.798 14.25,30.798 14.25,30.798 C 14.25,32.298 14.25,33.048 14.25,33.048 C 14.25,35.298 16.5,35.298 16.5,35.298 C 17.25,35.298 17.25,34.548 17.25,34.548 C 19.5,33.798 21,30.798 21,30.798 C 21.75,30.048 21.75,29.298 21.75,29.298 C 21.75,28.548 22.5,28.548 22.5,28.548 C 22.5,28.548 22.5,28.548 22.5,28.548 C 23.25,28.548 23.25,28.548 23.25,28.548 C 24,29.298 23.25,30.048 23.25,30.048 C 22.5,32.298 21,34.548 21,34.548 C 19.5,36.048 17.25,36.798 17.25,36.798 C 15.75,36.798 15,36.798 15,36.798 C 12.75,36.048 11.25,33.798 11.25,33.798 L 11.25,33.798 L 11.25,33.798 C 9.75,36.048 8.25,36.798 8.25,36.798 C 7.5,36.798 6.75,36.798 6.75,36.798 C 6,36.798 6,36.798 6,36.798 C 4.5,36.048 3.75,35.298 3.75,35.298 C 3,34.548 3,33.798 3,33.798 C 2.25,33.048 3,32.298 3,32.298 C 3,31.548 3.75,30.798 3.75,30.798 C 4.5,29.298 6,30.048 6,30.048 C 6.75,30.048 6.75,30.798 6.75,30.798 C 7.5,30.798 7.5,31.548 7.5,31.548 C 7.5,32.298 6.75,33.048 6.75,33.048 C 6.75,33.798 6,33.798 6,33.798 C 5.25,34.548 5.25,34.548 5.25,34.548 C 5.25,34.548 5.25,34.548 5.25,34.548 C 6,34.548 6,34.548 6,34.548 C 6.75,35.298 6.75,35.298 6.75,35.298 C 8.25,35.298 8.25,34.548 8.25,34.548 C 9.75,33.798 10.5,31.548 10.5,31.548 L 13.5,20.298 C 13.5,18.048 12.75,17.298 12.75,17.298 C 12,16.548 10.5,16.548 10.5,16.548 C 9,16.548 6.75,19.548 6.75,19.548 C 6,21.048 6,22.548 6,22.548 C 5.25,22.548 5.25,22.548 5.25,22.548 C 5.25,22.548 4.5,22.548 4.5,22.548 L 3.75,22.548 L 3.75,22.548 C 3.75,22.548 3.75,22.548 3.75,22.548 C 3.75,21.048 5.25,18.798 5.25,18.798 C 5.25,18.798 5.25,18.798 5.25,18.798 C 6,17.298 6.75,16.548 6.75,16.548 C 9,15.048 10.5,15.048 10.5,15.048 z"
           style="fill:#000000;fill-opacity:1;fill-rule:nonzero;stroke:none"
           id="path2442" /></g></g><g
       id="g2444"
       transform="matrix(1.2152778,0,0,1.2152778,384.09113,218.07151)"><g
         id="g2446"
         clip-path="url(#clipPath2448)"><path
           d="M 18,16.5 C 32.25,10.5 32.25,9.75 32.25,9.75 C 32.25,9.75 33,10.5 33,10.5 C 33.75,10.5 33,11.25 33,11.25 C 33,11.25 33,12 33,12 C 33,12 20.25,18 20.25,18 L 7.5,24 L 20.25,30 C 33,36 33,36 33,36 C 33.75,36.75 33,37.5 33,37.5 C 33,37.5 33,37.5 33,37.5 C 32.25,38.25 32.25,37.5 32.25,37.5 C 31.5,37.5 18,31.5 18,31.5 C 4.5,24.75 4.5,24.75 4.5,24.75 C 3.75,24.75 3.75,24 3.75,24 C 3.75,23.25 4.5,23.25 4.5,23.25 C 4.5,23.25 18,16.5 18,16.5 z"
           style="fill:#000000;fill-opacity:1;fill-rule:nonzero;stroke:none"
           id="path2452" /></g></g><g
       id="g2454"
       transform="matrix(1.2152778,0,0,1.2152778,458.20939,347.10121)"><g
         id="g2456"
         clip-path="url(#clipPath2458)"><path
           d="M 11.25,3.7980003 C 15,3.7980003 18,6.7980003 18,6.7980003 C 19.5,7.5480003 20.25,9.7980003 20.25,9.7980003 C 21.75,13.548 21.75,21.048 21.75,21.048 C 21.75,27.798 20.25,32.298 20.25,32.298 C 18.75,34.548 15.75,36.048 15.75,36.048 C 13.5,37.548 10.5,36.798 10.5,36.798 C 7.5,36.798 6,34.548 6,34.548 C 4.5,33.798 3.75,32.298 3.75,32.298 C 1.5,27.798 1.5,21.048 1.5,21.048 C 1.5,15.048 3,11.298 3,11.298 C 3.75,9.7980003 4.5,8.2980003 4.5,8.2980003 C 6.75,4.5480003 10.5,4.5480003 10.5,4.5480003 C 10.5,3.7980003 11.25,3.7980003 11.25,3.7980003 z M 12.75,6.0480003 C 12,5.2980003 11.25,5.2980003 11.25,5.2980003 C 9,6.0480003 7.5,8.2980003 7.5,8.2980003 C 7.5,9.0480003 6.75,9.0480003 6.75,9.0480003 C 6.75,10.548 6.75,12.798 6.75,12.798 C 6.75,14.298 6,18.798 6,18.798 C 6,29.298 7.5,31.548 7.5,31.548 C 7.5,32.298 7.5,33.048 7.5,33.048 C 9,35.298 12,35.298 12,35.298 C 12,35.298 12.75,35.298 12.75,35.298 C 15,35.298 16.5,33.048 16.5,33.048 C 17.25,30.798 17.25,23.298 17.25,23.298 C 17.25,21.798 17.25,18.798 17.25,18.798 C 17.25,14.298 17.25,12.798 17.25,12.798 C 17.25,10.548 16.5,9.0480003 16.5,9.0480003 C 15.75,6.7980003 13.5,6.0480003 13.5,6.0480003 C 13.5,6.0480003 12.75,6.0480003 12.75,6.0480003 z"
           style="fill:#000000;fill-opacity:1;fill-rule:nonzero;stroke:none"
           id="path2462" /></g></g><g
       id="g2474"
       transform="matrix(1.2152778,0,0,1.2152778,196.79862,211.36867)"><g
         id="g2476"
         clip-path="url(#clipPath2478)"><path
           d="M 4.5,24.93 L 4.5,24.93 L 18.75,24.93 L 32.25,24.93 L 33,24.93 C 33,24.93 33,24.93 33,24.93 C 33,25.68 33,25.68 33,25.68 C 33,25.68 33,26.43 33,26.43 C 33,26.43 33,26.43 33,26.43 L 32.25,26.43 L 18.75,26.43 L 4.5,26.43 L 4.5,26.43 C 4.5,26.43 4.5,26.43 4.5,26.43 C 3.75,25.68 3.75,25.68 3.75,25.68 C 3.75,25.68 4.5,24.93 4.5,24.93 C 4.5,24.93 4.5,24.93 4.5,24.93 z"
           style="fill:#000000;fill-opacity:1;fill-rule:nonzero;stroke:none"
           id="path2482" /></g></g><g
       id="g2484"
       transform="matrix(1.2152778,0,0,1.2152778,206.11736,347.10121)"><g
         id="g2486"
         clip-path="url(#clipPath2488)"><path
           d="M 10.5,15.048 C 11.25,15.048 12.75,15.048 12.75,15.048 C 13.5,15.048 14.25,15.798 14.25,15.798 C 15,16.548 15.75,17.298 15.75,17.298 L 15.75,17.298 L 16.5,17.298 C 17.25,16.548 18,15.798 18,15.798 C 18.75,15.048 19.5,15.048 19.5,15.048 C 21,14.298 22.5,15.048 22.5,15.048 C 23.25,15.798 24,15.798 24,15.798 C 24,16.548 24.75,16.548 24.75,16.548 C 24.75,18.048 24.75,19.548 24.75,19.548 C 24,21.048 22.5,21.048 22.5,21.048 C 21.75,21.048 21,21.048 21,21.048 C 20.25,21.048 20.25,20.298 20.25,20.298 C 20.25,19.548 20.25,18.798 20.25,18.798 C 21,18.048 21.75,17.298 21.75,17.298 L 22.5,17.298 L 21.75,16.548 C 21,15.798 19.5,16.548 19.5,16.548 C 19.5,16.548 19.5,16.548 19.5,16.548 C 18,17.298 17.25,19.548 17.25,19.548 C 16.5,21.048 14.25,30.048 14.25,30.048 C 14.25,30.798 14.25,30.798 14.25,30.798 C 14.25,32.298 14.25,33.048 14.25,33.048 C 14.25,35.298 16.5,35.298 16.5,35.298 C 17.25,35.298 17.25,34.548 17.25,34.548 C 19.5,33.798 21,30.798 21,30.798 C 21.75,30.048 21.75,29.298 21.75,29.298 C 21.75,28.548 22.5,28.548 22.5,28.548 C 22.5,28.548 22.5,28.548 22.5,28.548 C 23.25,28.548 23.25,28.548 23.25,28.548 C 24,29.298 23.25,30.048 23.25,30.048 C 22.5,32.298 21,34.548 21,34.548 C 19.5,36.048 17.25,36.798 17.25,36.798 C 15.75,36.798 15,36.798 15,36.798 C 12.75,36.048 11.25,33.798 11.25,33.798 L 11.25,33.798 L 11.25,33.798 C 9.75,36.048 8.25,36.798 8.25,36.798 C 7.5,36.798 6.75,36.798 6.75,36.798 C 6,36.798 6,36.798 6,36.798 C 4.5,36.048 3.75,35.298 3.75,35.298 C 3,34.548 3,33.798 3,33.798 C 2.25,33.048 3,32.298 3,32.298 C 3,31.548 3.75,30.798 3.75,30.798 C 4.5,29.298 6,30.048 6,30.048 C 6.75,30.048 6.75,30.798 6.75,30.798 C 7.5,30.798 7.5,31.548 7.5,31.548 C 7.5,32.298 6.75,33.048 6.75,33.048 C 6.75,33.798 6,33.798 6,33.798 C 5.25,34.548 5.25,34.548 5.25,34.548 C 5.25,34.548 5.25,34.548 5.25,34.548 C 6,34.548 6,34.548 6,34.548 C 6.75,35.298 6.75,35.298 6.75,35.298 C 8.25,35.298 8.25,34.548 8.25,34.548 C 9.75,33.798 10.5,31.548 10.5,31.548 L 13.5,20.298 C 13.5,18.048 12.75,17.298 12.75,17.298 C 12,16.548 10.5,16.548 10.5,16.548 C 9,16.548 6.75,19.548 6.75,19.548 C 6,21.048 6,22.548 6,22.548 C 5.25,22.548 5.25,22.548 5.25,22.548 C 5.25,22.548 4.5,22.548 4.5,22.548 L 3.75,22.548 L 3.75,22.548 C 3.75,22.548 3.75,22.548 3.75,22.548 C 3.75,21.048 5.25,18.798 5.25,18.798 C 5.25,18.798 5.25,18.798 5.25,18.798 C 6,17.298 6.75,16.548 6.75,16.548 C 9,15.048 10.5,15.048 10.5,15.048 z"
           style="fill:#000000;fill-opacity:1;fill-rule:nonzero;stroke:none"
           id="path2492" /></g></g><g
       id="g2504"
       transform="matrix(1.2152778,0,0,1.2152778,557.01642,208.01725)"><g
         id="g2506"
         clip-path="url(#clipPath2508)"><path
           d="M 10.5,15.048 C 11.25,15.048 12.75,15.048 12.75,15.048 C 13.5,15.048 14.25,15.798 14.25,15.798 C 15,16.548 15.75,17.298 15.75,17.298 L 15.75,17.298 L 16.5,17.298 C 17.25,16.548 18,15.798 18,15.798 C 18.75,15.048 19.5,15.048 19.5,15.048 C 21,14.298 22.5,15.048 22.5,15.048 C 23.25,15.798 24,15.798 24,15.798 C 24,16.548 24.75,16.548 24.75,16.548 C 24.75,18.048 24.75,19.548 24.75,19.548 C 24,21.048 22.5,21.048 22.5,21.048 C 21.75,21.048 21,21.048 21,21.048 C 20.25,21.048 20.25,20.298 20.25,20.298 C 20.25,19.548 20.25,18.798 20.25,18.798 C 21,18.048 21.75,17.298 21.75,17.298 L 22.5,17.298 L 21.75,16.548 C 21,15.798 19.5,16.548 19.5,16.548 C 19.5,16.548 19.5,16.548 19.5,16.548 C 18,17.298 17.25,19.548 17.25,19.548 C 16.5,21.048 14.25,30.048 14.25,30.048 C 14.25,30.798 14.25,30.798 14.25,30.798 C 14.25,32.298 14.25,33.048 14.25,33.048 C 14.25,35.298 16.5,35.298 16.5,35.298 C 17.25,35.298 17.25,34.548 17.25,34.548 C 19.5,33.798 21,30.798 21,30.798 C 21.75,30.048 21.75,29.298 21.75,29.298 C 21.75,28.548 22.5,28.548 22.5,28.548 C 22.5,28.548 22.5,28.548 22.5,28.548 C 23.25,28.548 23.25,28.548 23.25,28.548 C 24,29.298 23.25,30.048 23.25,30.048 C 22.5,32.298 21,34.548 21,34.548 C 19.5,36.048 17.25,36.798 17.25,36.798 C 15.75,36.798 15,36.798 15,36.798 C 12.75,36.048 11.25,33.798 11.25,33.798 L 11.25,33.798 L 11.25,33.798 C 9.75,36.048 8.25,36.798 8.25,36.798 C 7.5,36.798 6.75,36.798 6.75,36.798 C 6,36.798 6,36.798 6,36.798 C 4.5,36.048 3.75,35.298 3.75,35.298 C 3,34.548 3,33.798 3,33.798 C 2.25,33.048 3,32.298 3,32.298 C 3,31.548 3.75,30.798 3.75,30.798 C 4.5,29.298 6,30.048 6,30.048 C 6.75,30.048 6.75,30.798 6.75,30.798 C 7.5,30.798 7.5,31.548 7.5,31.548 C 7.5,32.298 6.75,33.048 6.75,33.048 C 6.75,33.798 6,33.798 6,33.798 C 5.25,34.548 5.25,34.548 5.25,34.548 C 5.25,34.548 5.25,34.548 5.25,34.548 C 6,34.548 6,34.548 6,34.548 C 6.75,35.298 6.75,35.298 6.75,35.298 C 8.25,35.298 8.25,34.548 8.25,34.548 C 9.75,33.798 10.5,31.548 10.5,31.548 L 13.5,20.298 C 13.5,18.048 12.75,17.298 12.75,17.298 C 12,16.548 10.5,16.548 10.5,16.548 C 9,16.548 6.75,19.548 6.75,19.548 C 6,21.048 6,22.548 6,22.548 C 5.25,22.548 5.25,22.548 5.25,22.548 C 5.25,22.548 4.5,22.548 4.5,22.548 L 3.75,22.548 L 3.75,22.548 C 3.75,22.548 3.75,22.548 3.75,22.548 C 3.75,21.048 5.25,18.798 5.25,18.798 C 5.25,18.798 5.25,18.798 5.25,18.798 C 6,17.298 6.75,16.548 6.75,16.548 C 9,15.048 10.5,15.048 10.5,15.048 z"
           style="fill:#000000;fill-opacity:1;fill-rule:nonzero;stroke:none"
           id="path2512" /></g></g><rect
       style="opacity:1;fill:#ffffff;fill-opacity:1;stroke:none;stroke-width:0.5;stroke-miterlimit:4;stroke-dasharray:none;stroke-dashoffset:0;stroke-opacity:1"
       id="rect4722"
       width="49.630844"
       height="27.375839"
       x="286.30704"
       y="171.76033"
       ry="10.817387"
       rx="10.714375" /><text
       xml:space="preserve"
       style="font-size:26.79456711px;font-style:normal;font-variant:normal;font-weight:normal;font-stretch:normal;text-align:center;line-height:125%;writing-mode:lr-tb;text-anchor:middle;fill:#000000;fill-opacity:1;stroke:none;stroke-width:1px;stroke-linecap:butt;stroke-linejoin:miter;stroke-opacity:1;font-family:Times New Roman;-inkscape-font-specification:Times New Roman"
       x="313.79816"
       y="191.94655"
       id="text4710"
       sodipodi:linespacing="125%"
       transform="scale(0.9952266,1.0047963)"><tspan
         sodipodi:role="line"
         id="tspan4712"
         x="313.79816"
         y="191.94655">then</tspan></text>
<rect
       style="opacity:1;fill:#ffffff;fill-opacity:1;stroke:none;stroke-width:0.5;stroke-miterlimit:4;stroke-dasharray:none;stroke-dashoffset:0;stroke-opacity:1"
       id="rect4728"
       width="43.56847"
       height="30.16279"
       x="468.90726"
       y="163.49348" /><text
       transform="scale(0.9952266,1.0047963)"
       sodipodi:linespacing="125%"
       id="text4714"
       y="186.94342"
       x="493.91104"
       style="font-size:26.79456711px;font-style:normal;font-variant:normal;font-weight:normal;font-stretch:normal;text-align:center;line-height:125%;writing-mode:lr-tb;text-anchor:middle;fill:#000000;fill-opacity:1;stroke:none;stroke-width:1px;stroke-linecap:butt;stroke-linejoin:miter;stroke-opacity:1;font-family:Times New Roman;-inkscape-font-specification:Times New Roman"
       xml:space="preserve"><tspan
         y="186.94342"
         x="493.91104"
         id="tspan4716"
         sodipodi:role="line">else</tspan></text>
<rect
       y="179.83167"
       x="387.99442"
       height="24.2624"
       width="42.594448"
       id="rect4724"
       style="opacity:1;fill:#ffffff;fill-opacity:1;stroke:none;stroke-width:0.5;stroke-miterlimit:4;stroke-dasharray:none;stroke-dashoffset:0;stroke-opacity:1" /><text
       transform="scale(0.9952266,1.0047963)"
       sodipodi:linespacing="125%"
       id="text4718"
       y="199.45126"
       x="411.35931"
       style="font-size:26.79456711px;font-style:normal;font-variant:normal;font-weight:normal;font-stretch:normal;text-align:center;line-height:125%;writing-mode:lr-tb;text-anchor:middle;fill:#000000;fill-opacity:1;stroke:none;stroke-width:1px;stroke-linecap:butt;stroke-linejoin:miter;stroke-opacity:1;font-family:Times New Roman;-inkscape-font-specification:Times New Roman"
       xml:space="preserve"><tspan
         y="199.45126"
         x="411.35931"
         id="tspan4720"
         sodipodi:role="line">test</tspan></text>
<rect
       y="289.89792"
       x="194.19087"
       height="26.392441"
       width="53.52697"
       id="rect4731"
       style="opacity:1;fill:#ffffff;fill-opacity:1;stroke:none;stroke-width:0.5;stroke-miterlimit:4;stroke-dasharray:none;stroke-dashoffset:0;stroke-opacity:1" /><text
       transform="scale(0.9952266,1.0047963)"
       sodipodi:linespacing="125%"
       id="text4733"
       y="309.52023"
       x="221.24016"
       style="font-size:26.79456711px;font-style:normal;font-variant:normal;font-weight:normal;font-stretch:normal;text-align:center;line-height:125%;writing-mode:lr-tb;text-anchor:middle;fill:#000000;fill-opacity:1;stroke:none;stroke-width:1px;stroke-linecap:butt;stroke-linejoin:miter;stroke-opacity:1;font-family:Times New Roman;-inkscape-font-specification:Times New Roman"
       xml:space="preserve"><tspan
         y="309.52023"
         x="221.24016"
         id="tspan4735"
         sodipodi:role="line">then</tspan></text>
<path
       sodipodi:nodetypes="cc"
       id="path4191"
       d="M 90.000001,60.96473 L 81.784233,74.408714"
       style="display:inline;fill:none;fill-rule:evenodd;stroke:#000000;stroke-width:0.50000000000000000;stroke-linecap:butt;stroke-linejoin:miter;stroke-opacity:1;stroke-miterlimit:4;stroke-dasharray:none"
       transform="scale(4.4444444,4.4871804)" /><path
       style="display:inline;fill:none;fill-rule:evenodd;stroke:#000000;stroke-width:0.50000000000000000;stroke-linecap:butt;stroke-linejoin:miter;stroke-opacity:1;stroke-miterlimit:4;stroke-dasharray:none"
       d="M 94.854773,61.338174 L 103.44398,74.782158"
       id="path4193"
       sodipodi:nodetypes="cc"
       transform="scale(4.4444444,4.4871804)" /><rect
       style="opacity:1;fill:#ffffff;fill-opacity:1;stroke:none;stroke-width:0.5;stroke-miterlimit:4;stroke-dasharray:none;stroke-dashoffset:0;stroke-opacity:1"
       id="rect4740"
       width="53.52697"
       height="26.392441"
       x="344.81329"
       y="291.15469" /><text
       xml:space="preserve"
       style="font-size:26.79456711px;font-style:normal;font-variant:normal;font-weight:normal;font-stretch:normal;text-align:center;line-height:125%;writing-mode:lr-tb;text-anchor:middle;fill:#000000;fill-opacity:1;stroke:none;stroke-width:1px;stroke-linecap:butt;stroke-linejoin:miter;stroke-opacity:1;font-family:Times New Roman;-inkscape-font-specification:Times New Roman"
       x="372.58499"
       y="310.77103"
       id="text4742"
       sodipodi:linespacing="125%"
       transform="scale(0.9952266,1.0047963)"><tspan
         sodipodi:role="line"
         id="tspan4744"
         x="372.58499"
         y="310.77103">left</tspan></text>
<rect
       y="291.15469"
       x="424.48135"
       height="28.905991"
       width="53.526978"
       id="rect4746"
       style="opacity:1;fill:#ffffff;fill-opacity:1;stroke:none;stroke-width:0.5;stroke-miterlimit:4;stroke-dasharray:none;stroke-dashoffset:0;stroke-opacity:1" /><text
       transform="scale(0.9952266,1.0047963)"
       sodipodi:linespacing="125%"
       id="text4748"
       y="310.77103"
       x="452.63516"
       style="font-size:26.79456711px;font-style:normal;font-variant:normal;font-weight:normal;font-stretch:normal;text-align:center;line-height:125%;writing-mode:lr-tb;text-anchor:middle;fill:#000000;fill-opacity:1;stroke:none;stroke-width:1px;stroke-linecap:butt;stroke-linejoin:miter;stroke-opacity:1;font-family:Times New Roman;-inkscape-font-specification:Times New Roman"
       xml:space="preserve"><tspan
         y="310.77103"
         x="452.63516"
         id="tspan4750"
         sodipodi:role="line">right</tspan></text>
</g><g
     inkscape:groupmode="layer"
     id="layer1"
     inkscape:label="annotations"
     style="display:inline"><text
       xml:space="preserve"
       style="font-size:8px;font-style:italic;font-variant:normal;font-weight:normal;font-stretch:normal;text-align:center;line-height:125%;writing-mode:lr-tb;text-anchor:middle;fill:#5c55ff;fill-opacity:1;stroke:none;stroke-width:1px;stroke-linecap:butt;stroke-linejoin:miter;stroke-opacity:1;font-family:Times New Roman;-inkscape-font-specification:Times New Roman Italic"
       x="131.25784"
       y="11.979352"
       id="text3315"
       sodipodi:linespacing="125%"><tspan
         sodipodi:role="line"
         id="tspan3317"
         x="131.25784"
         y="11.979352">parent</tspan></text>
<text
       sodipodi:linespacing="125%"
       id="text3319"
       y="37.091564"
       x="19.633572"
       style="font-size:8px;font-style:italic;font-variant:normal;font-weight:normal;font-stretch:normal;text-align:center;line-height:125%;writing-mode:lr-tb;text-anchor:middle;fill:#515151;fill-opacity:1;stroke:none;stroke-width:1px;stroke-linecap:butt;stroke-linejoin:miter;stroke-opacity:1;font-family:Times New Roman;-inkscape-font-specification:Times New Roman Italic"
       xml:space="preserve"><tspan
         y="37.091564"
         x="19.633572"
         id="tspan3321"
         sodipodi:role="line">selected</tspan></text>
<text
       sodipodi:linespacing="125%"
       id="text3327"
       y="78.337814"
       x="152.91258"
       style="font-size:8px;font-style:italic;font-variant:normal;font-weight:normal;font-stretch:normal;text-align:center;line-height:125%;writing-mode:lr-tb;text-anchor:middle;fill:#515151;fill-opacity:1;stroke:none;stroke-width:1px;stroke-linecap:butt;stroke-linejoin:miter;stroke-opacity:1;font-family:Times New Roman;-inkscape-font-specification:Times New Roman Italic"
       xml:space="preserve"><tspan
         y="78.337814"
         x="152.91258"
         id="tspan3329"
         sodipodi:role="line">siblings</tspan></text>
<text
       sodipodi:linespacing="125%"
       id="text3331"
       y="103.13047"
       x="23.686266"
       style="font-size:8px;font-style:italic;font-variant:normal;font-weight:normal;font-stretch:normal;text-align:center;line-height:125%;writing-mode:lr-tb;text-anchor:middle;fill:#ff5555;fill-opacity:1;stroke:none;stroke-width:1px;stroke-linecap:butt;stroke-linejoin:miter;stroke-opacity:1;font-family:Times New Roman;-inkscape-font-specification:Times New Roman Italic"
       xml:space="preserve"><tspan
         y="103.13047"
         x="23.686266"
         id="tspan3333"
         sodipodi:role="line">child</tspan></text>
<path
       style="opacity:0.5970149;fill:none;fill-opacity:1;fill-rule:evenodd;stroke:#000000;stroke-width:1px;stroke-linecap:butt;stroke-linejoin:miter;marker-end:url(#Arrow1Mend);stroke-opacity:1"
       d="M 20.062196,40.323791 L 40.209768,51.734989"
       id="path3335"
       sodipodi:nodetypes="cc" /><path
       sodipodi:nodetypes="cc"
       id="path4115"
       d="M 140.16033,70.396144 L 101.22649,56.494097"
       style="opacity:0.5970149;fill:none;fill-opacity:1;fill-rule:evenodd;stroke:#000000;stroke-width:1px;stroke-linecap:butt;stroke-linejoin:miter;marker-end:url(#Arrow1Mend);stroke-opacity:1" /><path
       style="opacity:0.5970149;fill:none;fill-opacity:1;fill-rule:evenodd;stroke:#000000;stroke-width:1px;stroke-linecap:butt;stroke-linejoin:miter;marker-end:url(#Arrow1Mend);stroke-opacity:1"
       d="M 144.54232,69.261104 L 133.8357,59.108205"
       id="path4117"
       sodipodi:nodetypes="cc" /><path
       style="opacity:0.69402986;fill:none;fill-opacity:1;fill-rule:evenodd;stroke:#ff0909;stroke-width:1px;stroke-linecap:butt;stroke-linejoin:miter;marker-end:url(#Arrow1Mend);stroke-opacity:1"
       d="M 25.180052,94.692101 L 40.596111,86.709956"
       id="path4119"
       sodipodi:nodetypes="cc" /><path
       sodipodi:nodetypes="cc"
       id="path4121"
       d="M 118.94961,14.189435 L 100.70169,24.259062"
       style="opacity:0.70522383000000000;fill:none;fill-opacity:1;fill-rule:evenodd;stroke:#0d03ff;stroke-width:1px;stroke-linecap:butt;stroke-linejoin:miter;marker-end:url(#Arrow1Mend);stroke-opacity:1" /></g></svg>